<?xml version="1.0" encoding="UTF-8"?>
<svg id="Layer_1" data-name="Layer 1" xmlns="http://www.w3.org/2000/svg" version="1.1" viewBox="0 0 803 161.2">
  <defs>
    <style>
      .cls-1 {
        fill: #ed1366;
      }

      .cls-1, .cls-2, .cls-3 {
        stroke-width: 0px;
      }

      .cls-2 {
        fill: #ed1165;
      }

      .cls-3 {
        fill: #ed1467;
      }
    </style>
  </defs>
  <path class="cls-2" d="M136.1,99c0-.6-.2-1.2-.5-1.7-.2-.4-.4-.7-.7-.9-.5-.4-1-.7-1.6-.7-.5,0-.9,0-1.4,0h-4.8c-.4,0-.8,0-1.2,0-.5,0-1.1.3-1.5.5-.5.3-.8.7-1.1,1.2-.3.5-.4,1.1-.4,1.7v26.5c0,.4,0,.8,0,1.2,0,.1-.3.4-.4.4-.7.1-1.4,0-2,0h-41.1c-13.7,0-.9,0-1.4,0-1.1,0-2.3-.3-3.4-.4-2.7-.6-5-1.8-7-3.8-.6-.5-1.1-1.2-1.5-1.9-.5-.9-.9-1.8-1.1-2.8-.2-.8-.3-1.7-.2-2.6v-7.8c0-2.6,0-.4,0-.6v-.4c0-.3.3-.5.5-.5h35.7c11.2,0,1.2,0,1.8,0s1.3-.1,1.9-.4c.6-.3,1.1-.7,1.5-1.3.3-.5.5-1.1.5-1.7v-27.9c0-.1,0-.3,0-.4,0-.1.2-.3.3-.3.5-.1,1.1,0,1.6,0h21.9c7.3,0,1.5,0,2.2,0s1.2-.3,1.7-.5c.5-.3.8-.7,1.1-1.2.3-.5.5-1.1.5-1.7v-3.6c0-.6-.2-1.2-.5-1.7-.2-.4-.4-.7-.8-.9-.5-.4-1-.6-1.6-.7-.8,0-1.6,0-2.4,0h-52c-17.3,0-1.1,0-1.6,0-1.5,0-3,0-4.4.4-2.2.3-4.3.8-6.4,1.7-3.8,1.5-7.1,3.7-9.9,6.7-1.6,1.7-2.8,3.6-3.7,5.7-.5,1.2-.8,2.4-1,3.7-.2,1.3-.3,2.7-.3,4v7.4c0,2.5,0,1.1,0,1.6s0,.3,0,.4c0,.1-.3.4-.4.4-1.9.2-3.9,0-5.8-.3-2.5-.5-4.8-1.7-6.7-3.5-.9-.8-1.6-1.8-2.2-2.9-.4-.7-.6-1.5-.7-2.3-.1-.8-.2-1.7-.2-2.6v-29.7c0-.9,0-1.9.2-2.8,0-.4.2-.8.3-1.1.5-1.3,1.2-2.4,2.1-3.4,1.5-1.6,3.3-2.7,5.4-3.4,1.5-.5,3-.8,4.5-.8h55.4c.6,0,1.2-.2,1.7-.5s1-.7,1.2-1.3c.3-.5.4-1.1.4-1.7v-3.4c0-.6-.2-1.2-.4-1.7-.1-.3-.3-.5-.4-.7-.5-.6-1.1-.9-1.9-1.1-.8-.1-1.6,0-2.4,0h-55c-2.1,0-4.5.5-6.5,1-3.9,1.1-7.5,2.9-10.6,5.5-1.6,1.3-3,2.7-4.1,4.4-1.8,2.7-2.9,5.5-3.1,8.8,0,.7,0,1.4,0,2v30.5c0,1,0,2,.1,3,0,.3,0,.7.1,1,.5,2.5,1.5,4.9,3,6.9.9,1.2,1.9,2.4,3.1,3.4,2.2,1.9,4.5,3.5,7.2,4.7,2.7,1.2,5.5,2,8.5,2.3.3,0,.5,0,.8,0,.9.2,1.9.2,2.8.2h2.6c.2,0,.4,0,.6,0,.1,0,.3.2.3.3.1.3.1.7.1,1v8c0,1.4,0,2.7.3,4,.2,1.5.7,2.9,1.3,4.2.9,1.9,2.1,3.7,3.6,5.3,3.8,3.9,8.4,6.5,13.8,7.7,1.1.3,2.2.4,3.4.5.9.1,1.9.2,2.8.2h55.8c.5,0,1.1-.1,1.6-.3.8-.3,1.3-.9,1.6-1.7.2-.5.3-1,.3-1.6v-35.1h0ZM65,83.2c.2-1.1.6-2,1.2-3,.7-1.1,1.6-2.1,2.7-2.9,1.5-1.1,3.2-2,5-2.4,1.1-.3,2.2-.5,3.4-.5h14.6c.4,0,.8,0,1.2,0,.3,0,.5.3.5.5s0,.5,0,.8v18.6c0,.3,0,.7,0,1,0,.1-.3.4-.4.4-.4,0-.8,0-1.2,0h-26.5c-.3,0-.7-.3-.7-.6v-9.4c0-.9,0-1.7.2-2.6h0Z"/>
  <path class="cls-1" d="M472.3,96.1c-.3-.4-.6-.7-1.1-.8-1.1-.4-2.3-.3-3.4-.3h-29.8c-1.8,0-3.7,0-5.5-.2-3.2-.4-5.6-2.2-6.7-5.2-.3-.9-.4-1.8,0-2.7,1-3.1,3.9-5.5,7.1-5.7,1.6-.1,3.2-.1,4.8-.1h22.8c1.2,0,2.3,0,3.4-.3.6-.1,1.2-.6,1.5-1.3.6-1.3.6-2.7,0-4-.3-.7-.9-1.1-1.5-1.2-.7-.1-1.4-.2-2-.2h-7.6c-.9,0-1.8-.2-2.7-.3-.6,0-.8-.4-.7-.9.4-2,1-4,1-6.1s-.9-5.4-2.8-7.6c-3-3.4-6.8-5.5-11.3-6-2.5-.3-5.1-.3-7.6,0-.9,0-1.8.3-2.7.6-2.9,1-5.4,2.6-7.4,4.9-2.1,2.3-3.3,5-3.2,8.2v1.4c0,1.4.5,2.7,1.2,3.9.5,1,1.2,2,2,2.8.6.7,1.3,1.3,1.7,2.2v.6c-.9,1.1-1.8,2.1-2.6,3.2-1.4,1.9-2.3,4-2.2,6.4v2.1c0,1.2.4,2.3.9,3.3.6,1.3,1.4,2.4,2.3,3.4,3.3,3.5,7.4,5.4,12.2,5.7h35.2c1.2,0,2.3-.1,3.5-.2.7,0,1.6-.9,1.9-1.8.4-1.4.2-2.7-.6-3.9h-.1ZM425.8,65.3c1.2-3,3.4-4.8,6.7-5.2.7,0,1.4,0,1.9,0h1.6c3,.2,5.2,1.8,6.6,4.4.8,1.5.8,3.1,0,4.6-.5,1.1-1.2,2-2.1,2.7-1.9,1.4-4,2.2-6.4,2.2s-4.5-.9-6.3-2.4c-1.1-.9-1.7-2.1-2.1-3.5-.3-.9-.3-1.8,0-2.7h0Z"/>
  <path class="cls-1" d="M541.9,102h-18c-4.6-.2-8.5-2.1-11.7-5.2-1.2-1.1-2.1-2.4-2.8-3.9-.5-1.1-.9-2.1-.9-3.3s0-1.8,0-2.8v-20.1c0-3.2,1.3-5.8,3.4-8.1,2.1-2.3,4.6-3.8,7.5-4.8.9-.3,1.8-.5,2.7-.6,1.8-.2,3.7-.3,5.5-.3h32.5c.9,0,1.8.2,2.7.3.8,0,1.2.6,1.6,1.2.6,1,.6,2.2.3,3.3-.3,1-1.6,2.1-2.5,2.1-1.6,0-3.2,0-4.8,0h-28.4c-1.8,0-3.7,0-5.5.3-2.9.6-5,2.3-5.9,5.2-.2.7-.4,1.4-.4,2,0,6.7,0,13.4,0,20.1,0,4.3,3.5,6.4,6.5,7.1.7.2,1.4.2,2.1.2h27.7c.4,0,.9,0,1.3-.3.4-.2.8-.6.9-1,.2-.9.3-1.8.3-2.7v-11.8c0-.9,0-1.8.2-2.7,0-.8,1-1.9,1.7-2,1.8-.4,3.6-.5,5.4,0,.7.2,1.1.9,1.4,1.5.2.4.3.9.3,1.3v21.5c0,.4-.2.9-.3,1.3,0,.7-1.2,1.8-1.9,1.8-1.1,0-2.3.2-3.4.2h-17.4Z"/>
  <path class="cls-1" d="M210.6,102h-18c-4.6-.2-8.5-1.9-11.8-5.1-1.4-1.3-2.4-2.8-3.1-4.5-.3-.9-.5-1.8-.7-2.7-.1-.9-.1-1.8-.1-2.8v-20.8c0-2.4,1-4.5,2.4-6.4,2.3-3.1,5.4-5,9-6.2.7-.2,1.4-.3,2-.4,1.8,0,3.7-.3,5.5-.3h32.5c.9,0,1.8,0,2.7.2,1,.2,1.6.8,1.9,1.8.4,1.1.3,2.3-.2,3.3-.4.9-1.2,1.5-2.1,1.6-1.4,0-2.8,0-4.1,0h-29.1c-1.8,0-3.7,0-5.5.3-2.9.5-5,2.2-6,5.1-.2.6-.3,1.4-.3,2v20.1c0,4.5,4.1,6.9,7.1,7.3.7,0,1.4.1,2.1.1h27c.5,0,1,0,1.3-.2.4-.2.8-.6.9-1,.2-.6.3-1.4.3-2v-11.8c0-1.1.1-2.3.2-3.4,0-1,1.2-2.2,2.2-2.3,1.4-.2,2.8-.2,4.1,0,1.1.1,2.1,1.1,2.3,2.3,0,.5.2.9.2,1.4v20.8c0,.7-.3,1.3-.5,2-.3.7-.8,1.1-1.5,1.3-.9.2-1.8.3-2.7.3h-18,0Z"/>
  <path class="cls-1" d="M728.7,84.6v18c0,2.6-1.1,4.9-2.7,7-2.2,2.8-5.1,4.6-8.5,5.7-.6.2-1.3.3-2,.4-4.1.5-8.3.5-12.4.2-.2,0-.5,0-.7-.2-.6-.3-1.2-.6-1.4-1.4-.4-1.2-.4-2.3,0-3.4.3-.9,1-1.5,2-1.7.9-.2,1.8-.2,2.7-.3,2.3,0,4.6,0,6.9-.1,2.5-.1,4.4-1.3,5.9-3.2.4-.5.6-1.2.7-1.9,0-.7-.5-1.5-1-1.5-.9,0-1.8-.2-2.7-.2h-15.2c-1.8,0-3.7,0-5.5-.1-4.3-.2-8-2-11.2-4.9-2.7-2.4-4.2-5.6-4.2-9.2v-21.5c0-.2,0-.5,0-.7,0-.9,1.3-2.2,2.3-2.4,1.4-.2,2.7-.2,4.1,0,1,.2,2.2,1.4,2.3,2.3,0,1.1.2,2.3.2,3.4v15.2c0,1.4,0,2.8,0,4.1,0,2,1.1,3.5,2.7,4.6,1.3.9,2.8,1.6,4.5,1.7h22.2c1.1,0,2.1-1.1,2.1-2.3s0-1.4,0-2.1v-21.5c0-1.2,0-2.3.2-3.4,0-1,1.2-2.2,2.3-2.3,1.1,0,2.3,0,3.4,0,1.4,0,2.7,1.4,2.8,2.6,0,1.2,0,2.3,0,3.5v15.2l-.2.4Z"/>
  <path class="cls-1" d="M637.1,76.9c0-2.6-1.1-4.9-2.8-7-2.4-2.9-5.5-4.9-9.2-5.8-2-.5-4-.9-6.1-.9h-13.1c-2.1,0-4.1.4-6.1.9-3.2.8-6,2.4-8.3,4.7-2.4,2.4-3.7,5.3-3.8,8.7v10.4c0,3.6,1.5,6.7,4.2,9.2,3.2,2.9,6.8,4.7,11.2,4.9,3,.1,6,.1,9.4.2,3.1,0,6.6,0,10-.3,5.1-.4,9.2-2.7,12.4-6.8,1.4-1.9,2.3-4.1,2.4-6.4,0-3.9,0-7.9,0-11.8h-.2ZM628,88.4c0,.5,0,.9-.3,1.4-.2.6-.4,1.4-.9,1.9-1.5,1.8-3.4,3.1-5.9,3.2-3,.2-6,.1-9,.2h0c-2.5-.1-5.1,0-7.6-.1-2.2,0-4-.9-5.6-2.3-1.1-.9-1.7-2.1-2-3.5,0-.5-.2-.9-.2-1.4v-10.3c0-1.2.3-2.3,1-3.3.8-1.2,1.8-2.1,3.1-2.6,1.5-.7,3-1.2,4.6-1.2h13.8c1.4,0,2.7.5,4,.9,1.3.5,2.4,1.3,3.3,2.4.6.7,1,1.5,1.2,2.4,0,.5.2.9.2,1.4v11h.3Z"/>
  <path class="cls-1" d="M325,76.7c0-2.1-.8-4.1-2-5.8-1.9-2.7-4.4-4.7-7.5-6-2.6-1-5.3-1.7-8.1-1.7h-13.8c-2.6,0-5.1.5-7.5,1.4-3.1,1-5.8,2.8-7.8,5.5-1.4,1.9-2.5,3.9-2.6,6.3-.1,4.4,0,8.8,0,13.1s.2,1.4.4,2c.7,2,1.7,3.8,3.3,5.2,3.3,3.1,7.1,5,11.7,5.2,3,.1,6,.1,9.2.1s6.3,0,9.5-.2c4.6-.2,8.4-2.2,11.6-5.4,2.2-2.2,3.4-5,3.6-8,.2-3.9,0-7.9,0-11.8h0ZM315.9,88.7c0,1.7-.9,3.1-2.2,4.1-1.5,1.2-3.1,2-5,2.1h-15.9c-2.2,0-4.1-.8-5.7-2.1-1.1-.9-1.9-2-2.2-3.4-.2-.9-.4-1.8-.4-2.7v-8.3c0-3.9,2.1-6.4,5.9-7.5,1.1-.3,2.2-.6,3.4-.6h13.1c1.6,0,3.2.4,4.7,1,1.3.5,2.4,1.4,3.3,2.5.6.7,1,1.6,1.1,2.5s.2,1.8.2,2.8c0,3.2,0,6.4,0,9.7h-.2Z"/>
  <path class="cls-1" d="M782,102h-2.1c-.9,0-1.8-.3-2.6-.9-2.5-2-5-4.1-7.5-6.1-2.7-2.2-5.4-4.3-8.1-6.5-.7-.6-1.8-.5-2.6,0-1.3,1-2.6,2-3.8,3-3.8,3.1-7.5,6.1-11.2,9.2-1.1.9-2.4,1.3-3.8,1.3s-1.8-.1-2.7-.3c-1.3-.2-1.9-2.2-1.2-3.3.6-1,1.4-1.8,2.3-2.5,3.9-3.2,7.9-6.4,11.8-9.6,1.1-.9,2.2-1.7,3-2.8.3-.4.4-.9,0-1.3-.4-.6-.8-1.1-1.3-1.5-3-2.5-6.1-5-9.1-7.4-1.8-1.5-3.6-2.9-5.3-4.4-.5-.4-.9-1-1.4-1.6-.9-1.1-.5-3,.8-3.5,1.8-.7,3.6-.7,5.3.2,1,.5,1.9,1.3,2.8,2,4.7,3.7,9.3,7.5,14,11.3.5.4,1.4.4,1.9,0,.8-.5,1.5-1,2.2-1.6,3.9-3.2,7.9-6.4,11.8-9.7.7-.6,1.4-1.1,2.2-1.7,1.6-1.1,3.4-1.3,5.3-.8,1.4.3,2.2,2,1.7,3.2-.4.9-.9,1.6-1.6,2.2-3.4,2.8-6.8,5.5-10.2,8.3-1.8,1.5-3.5,3-5.3,4.5-.8.7-.7,1.6,0,2.3.5.4,1.1.9,1.6,1.3,4.1,3.4,8.2,6.7,12.3,10.1.9.7,1.7,1.6,2.5,2.4.3.3.5.8.6,1.2.4,1-.4,2.6-1.4,2.7-.7.1-1.4.2-1.4.2h.4Z"/>
  <path class="cls-1" d="M377.7,102c-2.3,0-3.5-.5-4.6-1.4-4.5-3.7-8.9-7.3-13.4-10.9-.7-.6-1.5-1-2.3-1.5-.4-.3-.9-.3-1.3,0-.8.5-1.5,1-2.3,1.6-3.8,3.1-7.5,6.1-11.2,9.2-.9.7-1.8,1.4-2.7,2.1-.8.6-1.6.8-2.6.9-1.2,0-2.3,0-3.4-.2-.5-.1-1.3-.9-1.3-1.4-.2-1,0-1.9.6-2.6,1-1,2-1.9,3-2.8,3.7-3.1,7.5-6.1,11.3-9.2.9-.7,1.7-1.5,2.5-2.4.3-.3.3-.8,0-1.3-.4-.5-.9-1.1-1.4-1.5-4.1-3.4-8.2-6.7-12.3-10.1-1.1-.9-2.1-1.8-3-2.8-.3-.3-.5-.8-.7-1.2-.4-1,.2-2.5,1.2-2.9,1.8-.7,3.6-.7,5.3.3.8.4,1.5,1,2.3,1.6,4.9,3.9,9.7,7.8,14.6,11.7.5.4,1.3.4,1.9,0,1.1-.8,2.2-1.6,3.3-2.5,3.6-2.9,7.1-5.8,10.7-8.8.7-.6,1.4-1.2,2.2-1.7,1.6-1.1,3.4-1.2,5.3-.8,1.6.4,2.4,2.5,1.4,3.9-.4.5-.8,1.1-1.4,1.6-3,2.5-6.1,5-9.1,7.5-2.1,1.8-4.2,3.6-6.3,5.4-.8.7-.7,1.6,0,2.3.9.7,1.7,1.5,2.6,2.2,3.6,2.9,7.2,5.8,10.7,8.7,1.1.9,2.1,1.8,3,2.9.6.7.8,1.6.6,2.6,0,.5-.8,1.3-1.4,1.4-.9.1-1.8.2-1.9.2h0Z"/>
  <path class="cls-3" d="M240.5,87.3v-11.1c0-2.4,1-4.5,2.5-6.3,2.2-2.8,5.1-4.6,8.5-5.7,2.4-.7,4.9-1.2,7.5-1.1,2.3,0,4.6,0,6.9.2,1.3,0,2.5,1.3,2.6,2.8v2.1c0,.8-1,1.7-1.8,1.8-.7,0-1.4.2-2,.2h-5.5c-1.9,0-3.7.4-5.4,1.2-1.8.7-3.1,2-3.8,3.8-.3.6-.5,1.3-.5,2v20c0,.9-.1,1.8-.2,2.7,0,.8-1,1.7-1.8,1.8-1.4.3-2.7.2-4.1.1-1.1,0-2.2-1.1-2.3-2.2,0-.9-.2-1.8-.2-2.7v-9.7h-.4Z"/>
  <path class="cls-3" d="M644.2,87.8v-11c0-3.2,1.4-5.8,3.6-8,2.3-2.3,5.1-3.9,8.3-4.7,2.3-.5,4.5-.9,6.8-.9s4.6-.2,6.9.2c1,.2,2.1,1.2,2.2,2.3,0,.9.2,1.8,0,2.7,0,.5-.9,1.4-1.3,1.5-.7.1-1.4.3-2,.3h-6.2c-1.6,0-3.2.4-4.7,1-.6.3-1.2.6-1.8,1-1.8,1.3-2.8,3-3,5.2,0,1.6,0,3.2,0,4.8v15.2c0,.9-.2,1.8-.3,2.7,0,.5-.9,1.3-1.4,1.4-1.8.5-3.6.5-5.4,0-.7-.2-1.1-.8-1.3-1.5s-.3-1.4-.3-2v-10.4h0v.2Z"/>
  <path class="cls-1" d="M580.6,78.2v19.3c0,.9,0,1.8-.3,2.7-.2.6-.6,1.2-1.4,1.4-1.8.5-3.6.5-5.4,0-.7-.2-1.1-.8-1.2-1.5-.2-1.1-.3-2.3-.3-3.4v-40.1c0-.7.2-1.4.3-2,0-.4,1-1.3,1.4-1.4,1.8-.5,3.6-.5,5.4,0,.7.2,1.2.8,1.3,1.5.2,1.1.3,2.3.3,3.4v20h0Z"/>
</svg>