<?xml version="1.0" encoding="UTF-8"?>
<svg id="Layer_1" data-name="Layer 1" xmlns="http://www.w3.org/2000/svg" version="1.1" viewBox="0 0 1080 342.8">
  <defs>
    <style>
      .cls-1 {
        fill: #ef2975;
      }

      .cls-1, .cls-2, .cls-3, .cls-4, .cls-5, .cls-6, .cls-7, .cls-8, .cls-9, .cls-10, .cls-11, .cls-12, .cls-13, .cls-14, .cls-15, .cls-16, .cls-17, .cls-18, .cls-19 {
        stroke-width: 0px;
      }

      .cls-2 {
        fill: #f0357c;
      }

      .cls-3 {
        fill: #ed1366;
      }

      .cls-4 {
        fill: #000;
      }

      .cls-5 {
        fill: #ee2874;
      }

      .cls-6 {
        fill: #ed1165;
      }

      .cls-7 {
        fill: #f0347b;
      }

      .cls-8 {
        fill: #f0327a;
      }

      .cls-9 {
        fill: #ed1467;
      }

      .cls-10 {
        fill: #f0337b;
      }

      .cls-11 {
        fill: #ef317a;
      }

      .cls-12 {
        fill: #ef2673;
      }

      .cls-13 {
        fill: #ee2572;
      }

      .cls-14 {
        fill: #f0367d;
      }

      .cls-15 {
        fill: #ef2974;
      }

      .cls-16 {
        fill: #ef327a;
      }

      .cls-17 {
        fill: #ee2370;
      }

      .cls-18 {
        fill: #ef2e78;
      }

      .cls-19 {
        fill: #ee2975;
      }
    </style>
  </defs>
  <path class="cls-3" d="M528.5,161.9c-.5-.7-1-1.1-1.8-1.4-1.9-.6-3.8-.5-5.7-.5-16.6,0-33.2,0-49.7,0-3.1,0-6.2.1-9.2-.3-5.3-.7-9.3-3.6-11.2-8.8-.6-1.5-.6-3-.1-4.6,1.7-5.2,6.6-9.2,11.9-9.5,2.7-.2,5.4-.2,8.1-.2,12.7,0,25.4,0,38.2,0,1.9,0,3.9,0,5.7-.4,1.1-.2,2-1,2.5-2.1,1-2.2.9-4.5,0-6.7-.5-1.1-1.4-1.8-2.6-2.1-1.1-.2-2.3-.4-3.4-.4-4.2,0-8.5,0-12.7,0-1.5,0-3-.3-4.6-.4-1-.1-1.4-.6-1.2-1.5.7-3.4,1.7-6.7,1.7-10.2,0-4.9-1.5-9.1-4.7-12.7-5.1-5.7-11.3-9.2-18.9-10-4.2-.4-8.5-.4-12.7.2-1.5.2-3.1.5-4.5,1-4.8,1.7-9,4.4-12.4,8.2-3.5,3.9-5.6,8.3-5.3,13.6,0,.8,0,1.5,0,2.3.1,2.3.8,4.5,1.9,6.6.9,1.7,2,3.3,3.3,4.7,1,1.2,2.2,2.2,2.8,3.6.1.3.2.8,0,1-1.4,1.8-3,3.5-4.4,5.4-2.3,3.2-3.8,6.7-3.7,10.8,0,1.1,0,2.3.1,3.5.1,1.9.6,3.8,1.5,5.5,1,2.1,2.3,4,3.8,5.7,5.6,5.9,12.4,9.1,20.4,9.5,2.7.1,5.4.1,8.1.2,7.7,0,15.4,0,23.1,0s18.5,0,27.7,0c1.9,0,3.8-.2,5.8-.3,1.2,0,2.7-1.5,3.1-3,.7-2.3.4-4.5-1-6.6ZM450.7,110.5c2-5.1,5.7-8,11.2-8.7,1.1-.2,2.3-.2,3.2-.2,1.1,0,1.8,0,2.6.2,5,.4,8.6,3,11,7.3,1.4,2.5,1.4,5.1.2,7.8-.8,1.8-1.9,3.3-3.5,4.5-3.2,2.3-6.7,3.7-10.7,3.6-4-.1-7.5-1.5-10.5-4.1-1.8-1.5-2.9-3.6-3.6-5.8-.4-1.5-.4-3.1.1-4.5Z"/>
  <path class="cls-3" d="M644.9,171.8c-7.3,0-14.7,0-22,0-2.7,0-5.4,0-8.1-.2-7.7-.3-14.1-3.4-19.6-8.7-2-1.9-3.5-4.1-4.6-6.6-.8-1.8-1.5-3.6-1.6-5.5,0-1.5-.2-3.1-.2-4.6,0-10.4,0-20.8,0-31.2,0-.8,0-1.5,0-2.3,0-5.3,2.1-9.7,5.6-13.5,3.5-3.8,7.7-6.4,12.5-8,1.4-.5,3-.8,4.5-1,3.1-.3,6.2-.5,9.2-.5,18.1,0,36.3,0,54.4,0,1.5,0,3.1.3,4.6.4,1.3.2,2.1,1.1,2.6,2,1,1.7,1,3.7.5,5.6-.4,1.6-2.7,3.5-4.2,3.5-2.7,0-5.4.2-8.1.2-15.8,0-31.6,0-47.4,0-3.1,0-6.2,0-9.2.5-4.8,1-8.3,3.8-9.9,8.7-.3,1.1-.6,2.3-.6,3.4,0,11.2-.2,22.4,0,33.5.2,7.1,5.8,10.8,10.8,11.9,1.1.3,2.3.4,3.4.4,15.4,0,30.8,0,46.3,0,.7,0,1.6-.2,2.2-.5.6-.4,1.3-1,1.4-1.7.3-1.5.4-3,.5-4.6,0-6.6,0-13.1,0-19.7,0-1.5.2-3.1.4-4.6.1-1.3,1.6-3.1,2.8-3.4,3-.7,6.1-.9,9.1,0,1.2.4,1.8,1.4,2.3,2.4.3.7.5,1.5.5,2.2,0,12,0,23.9,0,35.9,0,.8-.3,1.5-.4,2.3-.2,1.2-2,3-3.1,3.1-1.9.1-3.8.4-5.8.4-9.6,0-19.3,0-28.9,0h0Z"/>
  <path class="cls-3" d="M91.2,171.8c-7.3,0-14.7,0-22,0-2.7,0-5.4,0-8.1-.1-7.7-.3-14.2-3.2-19.7-8.5-2.3-2.2-4-4.7-5.1-7.6-.5-1.4-.9-2.9-1.1-4.4-.2-1.5-.2-3.1-.2-4.6,0-10.4,0-20.8,0-31.2,0-1.2,0-2.3,0-3.5,0-4,1.6-7.5,3.9-10.7,3.8-5.1,9-8.3,15-10.3,1.1-.4,2.3-.5,3.4-.6,3.1-.2,6.2-.5,9.2-.5,18.1,0,36.2,0,54.4,0,1.5,0,3.1.1,4.6.4,1.6.3,2.7,1.4,3.2,2.9.6,1.9.5,3.8-.4,5.6-.7,1.5-1.9,2.5-3.5,2.6-2.3.2-4.6.2-6.9.2-16.2,0-32.4,0-48.6,0-3.1,0-6.2,0-9.2.5-4.8.9-8.4,3.8-10,8.6-.4,1.1-.6,2.3-.6,3.4,0,11.2-.1,22.4,0,33.5,0,7.6,6.8,11.6,11.8,12.2,1.1.2,2.3.2,3.5.2,15,0,30.1,0,45.1,0,.8,0,1.6,0,2.2-.4.6-.3,1.3-1,1.5-1.6.4-1.1.4-2.3.5-3.4,0-6.6,0-13.1,0-19.7,0-1.9.2-3.8.3-5.8.1-1.7,2-3.7,3.7-3.9,2.3-.3,4.6-.3,6.9,0,1.8.2,3.6,1.9,3.8,3.8.1.8.3,1.5.3,2.3,0,11.6,0,23.1,0,34.7,0,1.1-.5,2.2-.9,3.3-.4,1.1-1.4,1.9-2.5,2.1-1.5.3-3,.4-4.6.5-10,0-20.1,0-30.1,0h0Z"/>
  <path class="cls-3" d="M957.2,142.8c0,8.1,0,16.2,0,24.3,0,1.9,0,3.9,0,5.8-.1,4.4-1.8,8.2-4.5,11.6-3.7,4.7-8.6,7.7-14.2,9.6-1.1.4-2.2.6-3.4.7-6.9.9-13.8.8-20.8.3-.4,0-.8,0-1.1-.3-1-.6-2-1-2.4-2.3-.6-1.9-.6-3.8,0-5.7.5-1.5,1.7-2.6,3.3-2.9,1.5-.3,3-.4,4.6-.4,3.9-.1,7.7,0,11.6-.2,4.1-.2,7.3-2.2,9.9-5.3.7-.9,1.1-2,1.2-3.2,0-1.1-.8-2.5-1.7-2.6-1.5-.1-3.1-.3-4.6-.4-8.5,0-17,0-25.4,0-3.1,0-6.2,0-9.2-.2-7.2-.3-13.4-3.3-18.7-8.1-4.5-4.1-6.9-9.3-7-15.3-.2-11.9,0-23.9,0-35.9,0-.4.1-.8.2-1.1.2-1.6,2.2-3.7,3.8-4,2.3-.4,4.6-.4,6.9,0,1.6.3,3.7,2.3,3.8,3.9.2,1.9.4,3.8.4,5.7,0,8.5,0,17,0,25.4,0,2.3,0,4.6.2,6.9.1,3.3,1.9,5.8,4.5,7.7,2.2,1.6,4.6,2.7,7.4,2.9.4,0,.8,0,1.2,0,12,0,23.9,0,35.9,0,1.8,0,3.5-1.8,3.6-3.8,0-1.2.2-2.3.2-3.5,0-2.3,0-4.6,0-6.9,0-9.6,0-19.3,0-28.9,0-1.9.2-3.8.3-5.8.1-1.7,2.1-3.7,3.8-3.8,1.9-.1,3.8-.2,5.8,0,2.3.1,4.5,2.3,4.6,4.4,0,1.9.2,3.9.2,5.8,0,8.5,0,17,0,25.4Z"/>
  <path class="cls-3" d="M803.9,129.8c-.1-4.4-1.8-8.3-4.6-11.6-4-4.9-9.2-8.1-15.4-9.7-3.4-.9-6.8-1.5-10.3-1.5-7.3,0-14.6,0-22,0-3.5,0-6.9.6-10.3,1.5-5.4,1.4-10,4-13.9,7.9-4,4-6.3,8.8-6.3,14.5,0,5.8-.1,11.6,0,17.3.1,6.1,2.5,11.2,7,15.4,5.3,4.8,11.4,7.8,18.7,8.1,5,.2,10,.2,15.7.3,5.1-.1,11,0,16.7-.4,8.5-.7,15.4-4.5,20.7-11.3,2.4-3.1,3.8-6.8,3.9-10.7.2-6.5.2-13.1,0-19.7ZM788.7,149c0,.8-.2,1.5-.4,2.3-.4,1.1-.7,2.3-1.4,3.1-2.5,3.1-5.7,5.2-9.8,5.4-5,.3-10,.2-15,.4v-.2c-4.2,0-8.4,0-12.7,0-3.6,0-6.7-1.5-9.4-3.8-1.9-1.5-2.9-3.5-3.3-5.9-.1-.8-.3-1.5-.3-2.3,0-5.8,0-11.5,0-17.3,0-1.9.5-3.8,1.6-5.5,1.3-1.9,3-3.5,5.2-4.4,2.5-1.1,5-2,7.8-2,7.7,0,15.4,0,23.1,0,2.3,0,4.5.8,6.7,1.5,2.2.8,4,2.2,5.6,3.9,1.1,1.2,1.7,2.5,2,4.1.1.8.3,1.5.3,2.3,0,6.1,0,12.3,0,18.4Z"/>
  <path class="cls-3" d="M282.4,129.5c-.1-3.5-1.4-6.8-3.4-9.7-3.2-4.6-7.4-7.9-12.5-10-4.3-1.7-8.8-2.9-13.5-2.8-7.7,0-15.4,0-23.1,0-4.3,0-8.4.9-12.5,2.3-5.2,1.7-9.7,4.7-13.1,9.1-2.4,3.1-4.2,6.6-4.3,10.5-.2,7.3,0,14.6,0,22,0,1.1.4,2.3.7,3.4,1.1,3.3,2.9,6.3,5.5,8.8,5.5,5.2,11.9,8.4,19.6,8.7,5,.2,10,.2,15.4.2,5.1,0,10.5,0,15.9-.3,7.7-.4,14.1-3.7,19.5-9.1,3.7-3.7,5.7-8.3,6-13.4.3-6.5.2-13.1,0-19.7ZM267.2,149.6c0,2.8-1.5,5.1-3.8,6.9-2.5,1.9-5.2,3.4-8.4,3.4-4.6,0-9.2,0-13.8,0h0c-4.2,0-8.5,0-12.7,0-3.6,0-6.8-1.3-9.6-3.5-1.9-1.5-3.1-3.4-3.7-5.7-.3-1.5-.7-3-.7-4.6,0-4.6-.2-9.2,0-13.8.2-6.5,3.6-10.7,9.9-12.6,1.9-.6,3.7-1,5.7-1,7.3,0,14.6,0,21.9,0,2.7,0,5.3.7,7.8,1.7,2.2.9,4,2.3,5.4,4.2,1,1.2,1.6,2.6,1.8,4.2.2,1.5.4,3.1.3,4.6,0,5.4,0,10.8-.2,16.1Z"/>
  <path class="cls-3" d="M1046.1,171.7c-1.9,0-2.7,0-3.5,0-1.5-.1-3.1-.5-4.3-1.5-4.2-3.4-8.4-6.8-12.6-10.2-4.5-3.6-9-7.2-13.5-10.8-1.2-.9-3.1-.9-4.3,0-2.1,1.7-4.3,3.3-6.4,5-6.3,5.1-12.5,10.3-18.8,15.4-1.9,1.6-4.1,2.2-6.4,2.2-1.5,0-3.1-.2-4.6-.4-2.2-.4-3.3-3.7-2-5.6,1.1-1.6,2.4-3,3.9-4.2,6.6-5.3,13.2-10.7,19.7-16.1,1.8-1.5,3.7-2.8,5.1-4.7.5-.7.6-1.4.1-2.1-.7-.9-1.4-1.9-2.2-2.6-5.1-4.2-10.2-8.3-15.2-12.4-3-2.4-6-4.9-8.9-7.4-.9-.7-1.6-1.7-2.3-2.6-1.5-1.8-.8-5,1.4-5.9,3-1.2,6.1-1.2,8.9.3,1.7.9,3.2,2.2,4.7,3.4,7.8,6.3,15.6,12.6,23.4,18.9.8.6,2.3.6,3.2,0,1.3-.9,2.6-1.7,3.8-2.7,6.6-5.4,13.1-10.8,19.7-16.1,1.2-1,2.4-1.9,3.7-2.8,2.7-1.8,5.7-2.1,8.9-1.4,2.4.6,3.7,3.3,2.8,5.4-.6,1.5-1.5,2.7-2.7,3.7-5.7,4.7-11.4,9.3-17,13.9-3,2.5-5.9,5-8.8,7.5-1.3,1.1-1.2,2.7.2,3.9.9.7,1.8,1.5,2.7,2.2,6.9,5.6,13.8,11.2,20.6,16.9,1.5,1.2,2.8,2.6,4.2,4,.5.5.8,1.3,1.1,2,.7,1.7-.7,4.3-2.3,4.6-1.1.2-2.3.3-2.3.3Z"/>
  <path class="cls-3" d="M370.4,171.8c-3.8,0-5.9-.8-7.7-2.4-7.5-6.1-14.9-12.2-22.4-18.3-1.2-1-2.5-1.7-3.8-2.6-.7-.5-1.5-.4-2.2,0-1.3.9-2.6,1.7-3.8,2.6-6.3,5.1-12.5,10.2-18.8,15.4-1.5,1.2-3,2.4-4.5,3.6-1.3.9-2.7,1.4-4.3,1.5-1.9.1-3.8.2-5.7-.3-.9-.2-2.1-1.5-2.3-2.4-.3-1.6,0-3.1,1.1-4.3,1.6-1.7,3.3-3.3,5.1-4.7,6.3-5.1,12.6-10.2,18.8-15.3,1.5-1.2,2.8-2.6,4.2-3.9.5-.5.6-1.4,0-2.1-.7-.9-1.5-1.8-2.3-2.5-6.8-5.6-13.7-11.2-20.5-16.9-1.8-1.5-3.5-3.1-5.1-4.7-.5-.5-.8-1.3-1.1-2-.8-1.7.3-4.2,2-4.8,3-1.1,6-1.1,8.9.4,1.3.7,2.6,1.7,3.8,2.7,8.1,6.5,16.2,13,24.3,19.6.9.7,2.1.6,3.1,0,1.9-1.4,3.7-2.7,5.5-4.2,6-4.9,11.9-9.8,17.9-14.6,1.2-1,2.4-1.9,3.7-2.8,2.7-1.8,5.7-2.1,8.9-1.4,2.7.6,4,4.3,2.4,6.5-.7.9-1.4,1.9-2.3,2.6-5,4.2-10.1,8.3-15.2,12.5-3.6,2.9-7.1,5.9-10.6,8.9-1.3,1.1-1.2,2.7.2,3.9,1.5,1.2,2.9,2.5,4.4,3.7,6,4.9,12,9.7,17.9,14.6,1.8,1.5,3.5,3.1,5,4.8,1.1,1.2,1.3,2.7.9,4.3-.2.9-1.4,2.2-2.3,2.3-1.5.2-3,.3-3.2.4Z"/>
  <path class="cls-9" d="M141.1,147.3c0-4.2,0-8.5,0-12.7,0-1.9.1-3.8.2-5.8.1-4,1.7-7.5,4.1-10.6,3.7-4.6,8.5-7.8,14.2-9.5,4.1-1.2,8.2-2,12.5-1.9,3.8.1,7.7.1,11.5.3,2.2,0,4.2,2.2,4.3,4.6,0,1.1,0,2.3-.1,3.4-.1,1.4-1.7,2.9-3,3.1-1.1.1-2.3.4-3.4.4-3.1,0-6.2,0-9.2,0-3.1,0-6.1.7-9,1.9-3,1.2-5.1,3.4-6.4,6.3-.5,1-.8,2.2-.9,3.3-.2,2.3-.1,4.6-.2,6.9,0,8.9,0,17.7,0,26.6,0,1.5-.2,3.1-.4,4.6-.1,1.3-1.7,2.8-3.1,3.1-2.3.5-4.6.4-6.9.2-1.9-.1-3.7-1.9-3.9-3.6-.1-1.5-.3-3.1-.3-4.6,0-5.4,0-10.8,0-16.2h0Z"/>
  <path class="cls-9" d="M815.8,148c0-6.2,0-12.3,0-18.5,0-5.3,2.4-9.7,6.1-13.3,3.9-3.8,8.5-6.5,13.9-7.8,3.8-.9,7.5-1.6,11.4-1.5,3.8.1,7.7-.3,11.5.3,1.6.3,3.5,2.1,3.7,3.9.2,1.5.3,3-.2,4.6-.2.8-1.5,2.3-2.2,2.4-1.1.2-2.3.5-3.4.5-3.5,0-6.9,0-10.4,0-2.7,0-5.3.7-7.8,1.7-1.1.4-2.1,1-3,1.7-3,2.1-4.8,5-5,8.7-.2,2.7-.1,5.4-.1,8.1,0,8.5,0,16.9,0,25.4,0,1.5-.3,3-.5,4.6,0,.8-1.5,2.2-2.3,2.4-3,.8-6.1.9-9.1-.1-1.1-.4-1.9-1.3-2.2-2.5-.3-1.1-.4-2.3-.5-3.4,0-5.8,0-11.5,0-17.3h0Z"/>
  <path class="cls-3" d="M709.5,132.1c0,10.8,0,21.5,0,32.3,0,1.5-.1,3.1-.6,4.5-.3,1.1-1.1,2-2.3,2.3-3,.9-6.1.8-9.1-.1-1.1-.3-1.9-1.3-2.1-2.5-.3-1.9-.5-3.8-.5-5.7,0-16.9,0-33.8,0-50.8,0-5.4,0-10.8,0-16.1,0-1.1.3-2.3.4-3.4,0-.7,1.6-2.1,2.3-2.3,3-.8,6.1-.9,9,.2,1.1.4,2,1.4,2.1,2.5.3,1.9.4,3.8.5,5.7,0,11.2,0,22.3,0,33.5h0Z"/>
  <path class="cls-13" d="M806.4,231c-.1,4.3-.1,8.6-.4,12.8,0,1.2-.9,2-2,2.6-1,.5-3.6-.5-3.8-1.5-.2-1.1-.4-2.3-.4-3.4-.1-3.8-.2-7.7-.2-11.5,0-1.1-.4-1.5-1.4-1.3-.7.1-1.3.5-1.8,1.2-1,1.7-2,3.3-2.9,5-1.7,3-3.4,6.1-5.1,9.1-.4.7-.9,1.2-1.4,1.8-1,1.4-4.1,1.3-5.1,0-2.7-3.7-4.6-8-6.9-12-1-1.6-1.6-3.5-3.2-4.8-.2-.2-.7-.2-1-.2-.3,0-.9.2-.9.3-.2,1.9-.4,3.8-.4,5.7,0,2.7,0,5.4-.1,8.1,0,.7-.3,1.5-.5,2.2-.1.6-2.1,1.9-2.8,1.8-.7,0-2.5-1.5-2.6-2.1,0-.4-.3-.7-.3-1.1-.3-8.8-.4-17.7,0-26.5,0-1.7,2.3-3.4,4.1-3.3,1.6.1,3.1.6,4,2,1.3,1.9,2.4,3.9,3.6,5.9,2.9,5,5.1,10.3,8.4,15.1.7,1,2,.9,2.7-.2.6-1,1.3-1.9,1.8-2.9,2.5-4.8,5-9.5,7.5-14.3.7-1.3,1.6-2.6,2.6-3.8.7-.9,1.8-1.4,2.9-1.7,2.8-.6,5,1.4,5.1,3.4.2,4.6.2,9.2.3,13.7Z"/>
  <path class="cls-2" d="M112.5,213.5c3.5,0,6.9,0,10.4,0,.8,0,1.5.3,2.2.5.8.2,2,2,1.6,2.7-.4.6-1,1.3-1.6,1.4-1.5.3-3,.5-4.6.5-5.8,0-11.6,0-17.4.1-1.6,0-3.1.4-4.4,1.1-1.8,1-2.8,2.5-2.8,4.6,0,1,1,2.5,1.9,2.6,1.5.2,3,.4,4.6.5,5.4.1,10.8.1,16.2.2,1.2,0,2.2.7,3,1.4.7.6.6,2.6-.3,2.9-1,.4-2.1,1-3.2,1.1-4.6.2-9.3,0-13.9.2-1.9,0-3.8.2-5.8.4-1.9.2-2.9,2.4-2.1,4.4.6,1.5,1.7,2.6,3.3,2.9,1.5.4,3,.6,4.6.6,6.2.1,12.3,0,18.5.2,1.1,0,2.2.6,3.3,1,.9.3,1.1,2.3.4,2.9-.6.5-1.2.9-1.9,1.3-.3.2-.7.2-1.1.2-7.3,0-14.7,0-22,0-2.3,0-4.6-.8-6.6-1.9-2.5-1.3-4.2-3.3-4.9-6.1-.2-.7-.4-1.5-.4-2.3,0-4.2-.1-8.5,0-12.7,0-1.1.4-2.3.7-3.4.6-1.9,1.7-3.5,3.3-4.6,2.3-1.6,4.8-2.6,7.5-2.7,3.9-.1,7.7,0,11.6,0,0,0,0,0,0,0Z"/>
  <path class="cls-16" d="M846.5,247.4c-3.5,0-6.9,0-10.4,0-2.7,0-5.3-.8-7.7-2.2-2.8-1.6-4.8-4.1-5-7.3-.3-5-.3-10,0-15,.2-2.8,1.9-5,4.2-6.6,2.3-1.5,4.8-2.6,7.6-2.6,7.7-.1,15.4-.4,23.1.2.9,0,1.9,1.1,2.3,2.2.3.9,0,1.4-.8,1.9-1.1.6-2.2.8-3.3.8-5.8,0-11.6,0-17.3,0-1.5,0-3.1.3-4.6.5-2.9.5-4.5,2.6-4.3,5.8,0,.8,1.4,2.3,2.2,2.3,1.9.1,3.8.3,5.8.3,4.6,0,9.2,0,13.9,0,.7,0,1.5.3,2.2.4.7.1,2.2,1.9,1.9,2.5-.3.7-.9,1.2-1.4,1.7-.3.3-.6.5-1,.6-2.3.1-4.6.3-6.9.3-4.6.1-9.2.2-13.8.3-1.3,0-2.3.8-2.7,1.8-.9,2.1.5,4.9,2.7,5.5,1.1.3,2.2.7,3.4.7,5.4,0,10.8,0,16.2.1,1.9,0,3.9,0,5.8.3.7,0,1.3.7,1.9,1.2.8.6.7,2.4-.2,2.9-.6.4-1.3.9-2,1-3.8.2-7.7.2-11.5.4,0,0,0-.1,0-.2Z"/>
  <path class="cls-17" d="M69.9,231.5c-.4-.8-.3-1.4,0-2.2.5-1,1-2.1,1.4-3.1,1.1-2.8.5-5.3-1.2-7.5-.9-1.2-2.1-2.3-3.5-3-2.1-1-4.2-1.9-6.5-2-7.3,0-14.5,0-21.8,0-.4,0-.7.1-1.1.2-.6,0-2.3,1.6-2.4,2.3-.1.7-.4,1.5-.5,2.2,0,3.8,0,7.7,0,11.5h-.2c0,4.6.2,9.2.3,13.8,0,1.1,1.9,3.2,2.9,3.3.4,0,.8.2,1.1.2,6.9,0,13.8.1,20.7.1,2.3,0,4.5-.7,6.7-1.5,1.8-.7,3.3-2,4.4-3.5,1.7-2.3,2.2-4.8,1.1-7.6-.5-1.1-.9-2.1-1.4-3.1ZM43.2,218.7c5.8-.4,11.6-.5,17.3,0,1.1.1,2.2.8,3.1,1.4.9.6,1.5,1.6,1.6,2.9,0,1.7-.7,3.3-2,3.7-1.1.4-2.2.8-3.3.9-2.7.2-5.4.2-7.4.2-3.7-.2-6.8.3-9.9-.5-.8-.2-2.2-1.4-2.3-2.3,0-1.1-.2-2.3-.1-3.4.1-1.5,1.6-2.9,3-3ZM63.6,240.9c-1,.5-2.1,1.1-3.2,1.2-5.7.7-11.5.6-17.2,0-1.3-.1-3-1.7-3.1-3,0-1.1,0-2.3,0-3.4.1-1.3,1.8-2.8,3.1-3,.8,0,1.5-.3,2.3-.3,2.3,0,4.6,0,6.9,0h0c2.3,0,4.6,0,6.9.2,1.5.1,3,.6,4.3,1.4.9.6,1.7,1.6,1.8,2.8.2,1.4-.7,3.5-1.7,4Z"/>
  <path class="cls-10" d="M1028.6,247.4c-3.5,0-6.9,0-10.4,0-.7,0-1.5-.3-2.2-.5-.7-.1-2.3-2-2-2.5.3-.6.8-1.3,1.4-1.7.6-.4,1.4-.7,2.1-.7,5.8-.1,11.5-.1,17.3-.2,1.9,0,3.8-.2,5.7-.4.7,0,1.5-.4,2.1-.8,1.3-.6,2.2-2.4,1.8-3.8-.4-1.3-1.2-2-2.2-2.5-1-.5-2.2-.8-3.3-.9-3.5-.1-6.9-.1-10.4-.2-2.7,0-5.4-.5-8-1.2-1.5-.4-2.8-1.2-4-2.2-5-4.6-4.1-9.8,1-13.6,2.2-1.6,4.8-2.6,7.5-2.6,7.7-.1,15.4-.4,23.1.2.9,0,1.9,1,2.3,2.2.3.9,0,1.4-.8,1.9-1.1.6-2.2.8-3.3.8-5.8,0-11.5,0-17.3,0-1.5,0-3.1.2-4.6.5-1.1.3-2.1.9-3,1.6-1,.7-1.4,1.9-1.2,3.1.1,1.1.8,2.2,1.9,2.7,1.1.4,2.2.9,3.3.9,4.2.2,8.5.2,12.7.2,2.7,0,5.4.7,7.8,1.9,2.9,1.5,4.8,3.8,5.4,7,.1.7.1,1.6,0,2.3-.8,3.2-2.8,5.5-5.7,6.8-2.1.9-4.3,1.7-6.7,1.7-3.5,0-6.9,0-10.4,0,0,0,0,0,0,0Z"/>
  <path class="cls-16" d="M731.2,213.5c3.1,0,6.1,0,9.2,0,.8,0,1.5,0,2.3.3,1.1.3,2.1.9,2.3,2.2,0,.4.3.9.1,1.1-.6.5-1.2,1.1-1.9,1.2-1.5.3-3,.4-4.6.4-5,0-10,0-15,0-1.5,0-3.1.1-4.6.5-1.1.3-2.1.9-3,1.5-1.5,1-1.6,3.8-.2,5,.9.8,1.9,1.4,3,1.5,1.9.2,3.8.3,5.7.3,3.1,0,6.2,0,9.2.1,2.3,0,4.6.8,6.6,1.8,2.9,1.5,4.8,3.8,5.4,7,.2.7.1,1.6,0,2.3-.8,3.1-2.8,5.5-5.7,6.8-2.1.9-4.3,1.7-6.7,1.7-7.3,0-14.6,0-21.9-.1-.4,0-.7-.2-1.1-.3-.7-.1-2.3-2-2-2.5.3-.7.9-1.2,1.4-1.7.3-.3.6-.5,1-.6,1.5-.2,3.1-.3,4.6-.3,5.8,0,11.5,0,17.3,0,1.5,0,3-.4,4.4-1.1,1.2-.6,2-2.2,1.8-3.8-.2-1.3-1.1-2-2.1-2.5-1-.5-2.2-.8-3.3-.9-3.5-.1-6.9-.1-10.4-.2-3.1,0-6.1-.5-9-1.6-1.9-.7-3.3-1.9-4.5-3.5-2.8-4-1.6-9.6,2.5-12,2.3-1.4,4.8-2.5,7.6-2.5,3.8-.1,7.7,0,11.5,0h0Z"/>
  <path class="cls-15" d="M547.4,222.9c-.1-3.4-2.1-5.7-5-7.3-2-1.1-4.2-1.9-6.6-1.9-7.3,0-14.6,0-22,0-2,0-3.8,1.7-3.9,3.5-.1,4.2-.2,8.5-.3,13,0,4.3.2,8.9.3,13.5,0,1.3,1.7,3.1,2.9,3.2.4,0,.8.2,1.1.2,6.9,0,13.9.1,20.8,0,2.3,0,4.6-.6,6.7-1.6,3.4-1.5,5.8-3.9,5.9-7.8.1-5,.1-10,0-15ZM541.1,237.4c-.3,1.7-2.1,3.6-3.8,3.9-1.1.2-2.3.5-3.4.5-2.3,0-4.6,0-6.9,0h0c-2.7,0-5.4,0-8.1-.2-1.1,0-3.1-2-3.1-3-.3-5.7-.7-11.5.2-17.3.1-.8,1.5-2.2,2.3-2.3.4,0,.7-.3,1.1-.3,5,0,10,0,15,0s1.5.2,2.3.4c2.1.4,4.3,2.6,4.6,4.6.6,4.6.7,9.2-.1,13.8Z"/>
  <path class="cls-8" d="M238.8,228.4c0,3.1,0,6.2-.3,9.2-.4,3.7-2.6,6.4-5.9,8-2.1,1-4.3,1.7-6.6,1.7-4.2,0-8.4,0-12.7,0-2.3,0-4.6-.6-6.7-1.6-3.9-1.7-6.3-4.6-6.4-8.8-.2-6.5,0-13,0-19.6,0-1.3.8-2.1,1.7-2.9.6-.5,1.4-.6,2.1-.5.9.1,2.2,1.4,2.3,2.3.1,2.7.2,5.4.3,8,.1,4.2.1,8.4.3,12.7,0,1.7,1.9,3.7,3.6,4.1.4,0,.7.2,1.1.3,5.4.5,10.7.6,16.1,0,.4,0,.7-.3,1.1-.4,1.3-.4,2.8-2,2.9-3.3.1-1.5.3-3,.3-4.6,0-4.2,0-8.5,0-12.7,0-1.1.2-2.3.2-3.4,0-1.4,1.7-3,3-3,1.2,0,3,1.8,3.1,2.9,0,.8.3,1.5.3,2.3,0,3.1,0,6.1,0,9.2,0,0,0,0,.1,0Z"/>
  <path class="cls-14" d="M619.9,247.4c-3.5,0-6.9,0-10.4,0-2.4,0-4.6-.7-6.7-1.7-3-1.4-4.9-3.6-5.6-6.9-.2-.8-.4-1.5-.4-2.3,0-3.9-.1-7.7,0-11.6,0-1.1.3-2.3.6-3.4.7-2.8,2.4-4.8,4.9-6.1,2.1-1,4.2-1.9,6.6-1.9,7.3,0,14.6,0,22,0,.7,0,1.5.4,2.2.6.9.3,1.1.9,1.2,1.8.2.9,0,1.4-.9,1.8-1.1.5-2.2.8-3.3.8-5.8,0-11.6,0-17.3,0-1.2,0-2.3,0-3.4.3-1.1.2-2.2.6-3.2,1.2-1.4.8-2.4,2-2.5,3.7-.4,4.6-.6,9.2.2,13.8.2,1.2,1.7,3,3,3.2,1.5.3,3,.7,4.5.8,5.4.1,10.8,0,16.2.1,1.5,0,3.1.2,4.6.4.4,0,.8.3,1,.5.5.5,1.1,1.1,1.4,1.7.3.6-1.1,2.3-1.9,2.5-.7.1-1.5.5-2.2.5-3.5,0-6.9,0-10.4,0,0,0,0,0,0,0Z"/>
  <path class="cls-14" d="M980.8,247.4c-3.5,0-6.9,0-10.4,0-2.4,0-4.6-.8-6.7-1.7-3.4-1.6-5.6-4.3-5.8-8-.3-4.6-.3-9.2,0-13.9.2-3.7,2.2-6.5,5.5-8.3,2.1-1.1,4.2-1.9,6.6-1.9,7.3,0,14.6,0,22,0,.7,0,1.4.4,2.1.7.8.3,1.1,1,1.1,1.9,0,.8-.2,1.4-1.1,1.7-1.1.3-2.2.7-3.3.7-5.8,0-11.6,0-17.3.1-1.5,0-3.1.3-4.6.6-2.3.4-4.3,2.6-4.3,4.7,0,4.2,0,8.5,0,12.7,0,2.2,2.2,4.4,4.5,4.6,2.3.2,4.6.3,6.9.4,5.4.1,10.8.1,16.2.2.7,0,1.5.4,2.1.8.6.4,1.1,1.1,1.4,1.7.2.5-1.5,2.4-2.1,2.5-.7.1-1.5.4-2.2.4-3.5,0-6.9,0-10.4,0h0Z"/>
  <path class="cls-12" d="M454.3,228.6c.3-3.5-.5-8.2.5-12.8.2-.9,1.5-1.9,2.6-1.7.4,0,.8,0,1.1.2,1.3.8,2.6,1.6,3.8,2.7,6.6,5.9,13.2,11.9,19.7,17.9.6.5,1.3,1,2.1.9.7-.1,1.3-.7,1.9-1,.1-4.2.2-8.5.3-12.7,0-1.5,0-3.1.2-4.6,0-.7.5-1.4.8-2.1.4-.8,1.1-1,1.9-1,.9,0,1.5.1,1.9,1,.3.7.8,1.4.8,2.1,0,8.9,0,17.7,0,26.6,0,1.2-1,2.4-1.9,2.6-1.2.3-2.3.1-3.3-.5-.6-.4-1.3-.8-1.9-1.3-1.7-1.6-3.4-3.2-5.1-4.8-5.1-4.7-10.2-9.5-15.3-14.1-.5-.5-1.4-.8-2.1-.8-.6,0-1.6.7-1.7,1.2-.3,1.5-.4,3-.4,4.6,0,3.9,0,7.7-.1,11.6,0,.8-.3,1.5-.4,2.3-.2,1-1.3,1.9-2.4,2-.4,0-.9,0-1.1-.1-.5-.5-1.2-1.1-1.4-1.8-.3-1.1-.4-2.3-.4-3.4,0-3.9,0-7.7,0-12.6Z"/>
  <path class="cls-1" d="M181.7,242.3c-4.6-8.4-9.3-16.8-13.9-25.2-.4-.7-.9-1.2-1.3-1.9-1-1.5-4-1.4-5.1,0-.2.3-.5.6-.7.9-4.8,8.7-9.6,17.5-14.4,26.2-.2.3-.3.7-.3,1.1,0,.4,0,.7,0,1.1,0,.8.4,1.6,1.2,1.8.6.2,1.5.1,2.1-.2,1.8-.9,2.7-2.7,3.9-4.1.8-1,1.9-1.3,3-1.6.7-.2,1.5-.2,2.3-.2,4.2,0,8.5,0,12.7.1,1.6,0,2.9.8,3.9,2.1,1,1.2,1.9,2.4,3,3.5.9.8,2.1.8,3.2.3.8-.4,1.2-1,1.1-1.9-.2-.7-.3-1.5-.7-2.1ZM168.6,233.9c-.2.3-.6.5-1,.6-1.1.2-2.3.3-3.7.5-1.2-.2-2.7-.4-4.2-.6-.9-.1-1.7-1.9-1.3-2.8,1.1-2.5,2.1-4.9,3.8-7,.4-.5,1.2-1.2,1.7-1.1.6,0,1.3.8,1.7,1.4,1.6,2.2,2.9,4.5,3.6,7.1.2.6-.4,1.4-.7,2Z"/>
  <path class="cls-5" d="M435.6,242.5c-4.8-8.7-9.6-17.4-14.4-26.1-.4-.6-1-1.1-1.6-1.7-.6-.6-1.3-.8-2.1-.7-.7.3-1.5.5-2,.9-.8.8-1.5,1.7-2.1,2.7-4.6,8.4-9.2,16.7-13.8,25.1-.2.3-.3.7-.3,1.1,0,.4,0,.7.2,1.1.4,1.5,2.4,2.2,3.6,1.4,1.3-.8,2.3-2,3.1-3.3,1-1.9,2.7-2.7,4.7-2.7,4.6,0,9.2,0,13.8,0,.4,0,.8,0,1.1.2,1.1.3,2.1.6,2.9,1.7,1,1.6,2.1,3.3,3.8,4.2.6.3,1.5.2,2.1,0,.8-.2,1.3-.9,1.2-1.8,0-.7,0-1.6-.3-2.2ZM422.4,235.1c-1.1.2-2.2.4-3.4.6-1.8-.2-3.7-.4-5.5-.6-1-.1-2-1.7-1.8-2.5.9-3,2.6-5.5,4.1-8.2.7-1.3,3.1-1.3,3.8-.1,1.6,2.6,3.1,5.2,4.2,8.1.4,1-.3,2.5-1.3,2.7Z"/>
  <path class="cls-14" d="M899.1,213.3c5,.1,10,.2,14.9.5.6,0,1.3.8,1.8,1.3.7.7.1,2.7-.7,2.9-.7.2-1.4.5-2.2.6-2.3.1-4.6.2-6.9.2-3.7,0-4.6,2-4.6,5.1,0,4.2,0,8.4,0,12.7,0,2.3-.1,4.6-.2,6.9,0,1.3-.8,2.1-1.7,2.8-.6.5-1.4.6-2.1.4-.8-.2-2.3-1.6-2.3-2.3-.1-3.8-.2-7.7-.3-11.5-.1-3.8.3-7.7-.3-11.5-.1-.8-1.4-2.3-2.2-2.3-3.1-.2-6.1-.3-9.2-.5-.7,0-1.4-.4-2.2-.6-.9-.3-1.5-2.1-.8-2.8.6-.5,1.2-1.1,1.9-1.2,1.1-.3,2.3-.4,3.4-.4,4.6,0,9.2,0,13.8,0,0,0,0-.1,0-.2Z"/>
  <path class="cls-7" d="M275.3,213.4c5,.1,10,.2,14.9.3,1.3,0,2,.8,2.7,1.8.5.8-.3,2.5-1.2,2.7-1.9.5-3.8.5-5.7.5-1.9,0-3.9-.1-5.7.5-.6.2-1.3,1-1.5,1.6-.4,1.1-.5,2.2-.5,3.4,0,5.8,0,11.5,0,17.3,0,1.1-.3,2.2-.5,3.4-.1.6-1.9,2-2.7,2-.7,0-2.6-1.2-2.8-1.8-.2-.7-.6-1.4-.6-2.2,0-5.4,0-10.7-.1-16.1,0-.8,0-1.5,0-2.3,0-4.5-1.1-5.6-5.2-5.7-1.9,0-3.8,0-5.8-.1-.8,0-1.6-.1-2.2-.4-.7-.3-1.3-.8-1.8-1.3-.4-.4.9-2.6,1.6-2.8.7-.2,1.5-.5,2.2-.5,5,0,10,0,15,0,0,0,0-.1,0-.2Z"/>
  <path class="cls-19" d="M655.9,217.5s0,0,0,.1,0,0-.1,0l.2-.2Z"/>
  <path class="cls-19" d="M688.7,219.6c0-1.2-.6-1.9-1.7-2.1-1-.5-2-.4-3,.2.4-.6.3-1.4-.1-2.2-.3-.5-.7-.6-1.2-.3-7.6-1.3-15.2-1.3-22.8,0-.6-.2-1.1,0-1.5.5-.8.7-1.5,1.5-2.5,1.9,0,0,0,0,0,0t0,0h0c-.4,1-1.3,1.7-2.1,2.5-.5.3-.6.7-.3,1.3-1.3,6.1-1.3,12.2,0,18.2h0c-.3.6-.2,1.1.4,1.4.7.8,1.5,1.5,2,2.4h0,.1q0,0,0,0c.8.6,1.6,1.2,2.4,1.8l.8.6h1c7.4,1.5,14.8,1.4,22.2,0,3.2,0,5.3-1.5,6.3-4.5,1.6-7.2,1.5-14.5,0-21.8ZM681.4,241.6c-6.9.2-13.7.5-20.5-.3-1.3-1.5-2.2-3.2-2.2-5.2,0-3.8,0-7.7,0-11.5,0-2,.9-3.7,2.2-5.2,1.3,0,2.3-.5,3.2-1.4,4.8.7,9.5.7,14.3,0,1,.5,2,1,3.1,1.5.3-.1.5-.2.8-.4.4-.2.7-.5,1.1-.8,0,0,.1-.1.2-.2-.3.4-.6.8-.8,1.3-.1.2-.2.4-.2.6.4.2.8.4,1.2.6,0,.7.2,1.3.6,1.8-.4,5.3-.3,10.7,0,16-1,1-1.9,2-2.9,3.1Z"/>
  <path class="cls-11" d="M313.9,214.3c.7,0,1.6-.1,2.2.2,1.3.7,2.6,1.6,3.8,2.6,3.3,2.7,6,5.9,9.6,8.3.8.5,1.3.5,2.1,0,3.4-2.5,6.3-5.6,9.5-8.4.9-.8,1.7-1.5,2.7-2.1.6-.4,1.4-.5,2.1-.7.8-.2,1.6,0,1.9.9.2.7.4,1.6.2,2.1-.5,1-1.3,1.9-2.2,2.7-3.3,3.2-6.7,6.4-10,9.5-1.2,1.1-1.7,2.5-1.8,4.1-.2,3.4-.3,6.9-.4,10.4,0,1.3-1,2-1.9,2.7-1.1.8-3.6,0-3.9-1.3-.2-.7-.5-1.5-.5-2.2,0-2.7,0-5.4-.1-8.1,0-3.6-.5-4.5-3.1-7.1-3.6-3.5-7.5-6.6-10.6-10.5-.4-.5-.2-1.4-.1-2.1,0-.3.5-.6.8-.8Z"/>
  <path class="cls-6" d="M940.5,230.8c0,4.2,0,8.4,0,12.6,0,1.2-.8,2-1.8,2.7-1,.7-3.5-.1-3.8-1.3,0-.4-.3-.7-.3-1,0-8.8,0-17.5,0-26.3,0-.4.2-.7.2-1.1.1-.7,1.8-2,2.5-2.1.7,0,2.5,1.2,2.7,1.8.2.7.5,1.4.5,2.2,0,4.2,0,8.4,0,12.6,0,0,0,0,0,0Z"/>
  <path class="cls-18" d="M688.7,241.4c0-7.3,0-14.5,0-21.8.8.8,1.6,1.7,1.7,2.9.5,5.3.5,10.6,0,16-.1,1.2-.9,2.1-1.7,2.9Z"/>
  <path class="cls-18" d="M682.7,215.2c-7.6.4-15.2.5-22.8,0,.9-.6,1.8-1.3,3-1.4,5.6-.5,11.2-.5,16.8,0,1.2,0,2.1.8,3,1.4Z"/>
  <path class="cls-18" d="M660.2,245.8c7.4-.3,14.8-.4,22.2,0-1,.4-2.1,1.2-3.1,1.3-5.3.5-10.6.5-15.9,0-1.1,0-2.1-.9-3.1-1.3Z"/>
  <path class="cls-18" d="M653.5,221.4c.4,6.1.4,12.2,0,18.2-.3-.6-.9-1.3-1-2-.7-4.8-.7-9.5,0-14.3,0-.7.6-1.3,1-2Z"/>
  <path class="cls-18" d="M655.9,217.5c-.3,1.2-1,2.1-2.1,2.6,0-1.4.8-2.3,2.1-2.6Z"/>
  <path class="cls-18" d="M687,217.5c-1,.1-2,.2-3.1.3h0c0-.8,0-1.6,0-2.3,1.5,0,2.4.7,3.1,2Z"/>
  <path class="cls-18" d="M658.4,215.7c-.5,1.1-1.4,1.8-2.6,2,.4-1.3,1.2-2,2.6-2Z"/>
  <path class="cls-18" d="M653.9,241c1.1.5,1.8,1.3,2.1,2.5-1.3-.3-2.1-1.1-2.1-2.5Z"/>
  <path class="cls-18" d="M655.9,243.4c1.1.2,2,.8,2.5,1.9-1.4,0-2.1-.6-2.5-1.9Z"/>
  <path class="cls-4" d="M664.1,218.1c-.9.9-2,1.3-3.2,1.4,1.1-.5,2-1.4,3.2-1.4Z"/>
  <path class="cls-4" d="M681.4,241.6s0,0,0,0c-6.8.6-13.7,1-20.5-.3,6.8.8,13.7.5,20.5.3Z"/>
  <path class="cls-4" d="M683.7,220.7c-.4-.2-.8-.4-1.2-.6-.3-.2-.7-.3-1-.5-1-.5-2-1-3.1-1.5,1.2.6,2.7.5,3.8,1.1.2,0,.3.2.5.3.4.2.7.6.9,1.2Z"/>
  <path class="cls-4" d="M684.2,238.6c-.3-5.3-.3-10.7,0-16,1.1,5.3,1.2,10.7,0,16Z"/>
  <path class="cls-18" d="M681.4,241.6s0,0,0,0c-1,.5-2,1.4-3,1.5-4.9.1-9.8,0-14.7,0-1.1,0-2-.9-2.8-1.7,6.8.8,13.7.5,20.5.3Z"/>
  <path class="cls-18" d="M686,225.4c0,3.4,0,6.8,0,10.3-.6.9-1.2,1.9-1.8,2.9-.3-5.3-.3-10.7,0-16,.6,1,1.2,1.9,1.8,2.9Z"/>
  <path class="cls-18" d="M683.9,217.8c0,1-.2,1.9-.2,2.9-.4-.2-.8-.4-1.2-.6-.3-.2-.7-.3-1-.5-1-.5-2-1-3.1-1.5,1.8-.1,3.7-.2,5.5-.3h0Z"/>
  <path class="cls-18" d="M664.1,218.1c-.9.9-2,1.3-3.2,1.4.8-1.1,1.9-1.5,3.2-1.4Z"/>
</svg>