<?xml version="1.0" encoding="UTF-8"?>
<svg id="Layer_1" data-name="Layer 1" xmlns="http://www.w3.org/2000/svg" version="1.1" viewBox="0 0 1080 342.8">
  <defs>
    <style>
      .cls-1 {
        fill: #ef2975;
      }

      .cls-1, .cls-2, .cls-3, .cls-4, .cls-5, .cls-6, .cls-7, .cls-8, .cls-9, .cls-10, .cls-11, .cls-12, .cls-13, .cls-14, .cls-15, .cls-16, .cls-17, .cls-18, .cls-19 {
        stroke-width: 0px;
      }

      .cls-2 {
        fill: #f0357c;
      }

      .cls-3 {
        fill: #ed1366;
      }

      .cls-4 {
        fill: #000;
      }

      .cls-5 {
        fill: #ee2874;
      }

      .cls-6 {
        fill: #ed1165;
      }

      .cls-7 {
        fill: #f0347b;
      }

      .cls-8 {
        fill: #f0327a;
      }

      .cls-9 {
        fill: #ed1467;
      }

      .cls-10 {
        fill: #f0337b;
      }

      .cls-11 {
        fill: #ef317a;
      }

      .cls-12 {
        fill: #ef2673;
      }

      .cls-13 {
        fill: #ee2572;
      }

      .cls-14 {
        fill: #f0367d;
      }

      .cls-15 {
        fill: #ef2974;
      }

      .cls-16 {
        fill: #ef327a;
      }

      .cls-17 {
        fill: #ee2370;
      }

      .cls-18 {
        fill: #ef2e78;
      }

      .cls-19 {
        fill: #ee2975;
      }
    </style>
  </defs>
  <path class="cls-6" d="M331.7,207.8c0-1.5-.5-2.8-1.1-4.1-.4-.9-1-1.6-1.7-2.2-1.1-.9-2.4-1.6-3.8-1.7-1.1-.1-2.2-.2-3.3-.2-3.8,0-7.6,0-11.4,0-1,0-1.9,0-2.9.1-1.3,0-2.5.6-3.6,1.2-1.1.7-2,1.6-2.5,2.8-.6,1.3-1,2.7-1,4.1,0,1.4,0,2.9,0,4.3v35.2c0,7.8,0,15.5,0,23.3,0,.9,0,1.9-.1,2.8,0,.3-.6,1-.9,1-1.6.3-3.2.1-4.7.1-32.5,0-65,0-97.5,0s-2.2,0-3.3,0c-2.7,0-5.4-.6-8-.9-6.3-1.4-11.9-4.3-16.5-8.9-1.4-1.3-2.5-2.9-3.5-4.5-1.2-2.1-2.1-4.2-2.5-6.6-.4-2-.6-4.1-.5-6.1,0-6.2,0-12.4,0-18.5s0-.9,0-1.4c0-.3,0-.6,0-.9,0-.6.7-1.2,1.3-1.2,1.6,0,3.2,0,4.7,0,26.6,0,53.3,0,79.9,0s2.9,0,4.3,0c1.6,0,3.1-.3,4.6-.9,1.5-.6,2.7-1.7,3.5-3.1.7-1.3,1.2-2.6,1.2-4.1,0-1.6,0-3.2,0-4.8,0-19,0-38,0-57.1,0-1.4,0-2.9,0-4.3,0-.3,0-.7.2-.9.1-.3.4-.6.7-.6,1.2-.3,2.5-.2,3.8-.2,17.3,0,34.6,0,51.8,0s3.5,0,5.2,0c1.5,0,2.8-.6,4-1.3,1.1-.7,2-1.6,2.5-2.8.6-1.3,1.1-2.7,1.1-4.1,0-2.9,0-5.7,0-8.6,0-1.5-.5-2.8-1.1-4.1-.4-.9-1-1.6-1.8-2.2-1.2-.9-2.4-1.5-3.9-1.6-1.9-.1-3.8-.2-5.7-.2-41.1,0-82.1,0-123.2,0s-2.5,0-3.8,0c-3.5,0-7,0-10.4.9-5.2.6-10.2,2-15.1,4-9,3.5-16.8,8.8-23.4,15.9-3.7,4-6.7,8.5-8.7,13.5-1.1,2.8-2,5.7-2.4,8.7-.4,3.1-.7,6.3-.7,9.5,0,5.9,0,11.7,0,17.6s0,2.5,0,3.8c0,.3-.1.6-.2.9,0,.3-.7.9-1,1-4.6.4-9.2,0-13.7-.7-6-1.3-11.3-4-15.8-8.2-2.1-2-3.8-4.2-5.1-6.8-.9-1.7-1.5-3.5-1.7-5.4-.3-2-.5-4.1-.5-6.2,0-23.5,0-46.9,0-70.4,0-2.2.2-4.4.5-6.6.1-.9.4-1.8.7-2.7,1.1-3,2.8-5.7,5-8,3.6-3.7,7.8-6.4,12.7-8.1,3.5-1.2,7-1.9,10.7-1.9,1.6,0,3.2,0,4.8,0h121.3c1.7,0,3.5,0,5.2,0,1.5,0,2.8-.5,4.1-1.2,1.3-.7,2.3-1.7,2.9-3.1.6-1.3,1-2.7,1-4.1,0-2.7,0-5.4,0-8.1,0-1.5-.4-2.8-1-4.1-.3-.6-.6-1.1-1-1.6-1.2-1.4-2.7-2.2-4.5-2.5-1.9-.3-3.8-.2-5.7-.2-21.6,0-43.1,0-64.7,0s-39,0-58.5,0c-2.4,0-4.8,0-7.1,0-5,0-10.7,1.1-15.5,2.3-9.3,2.5-17.7,6.8-25.1,13.1-3.7,3.1-7,6.5-9.7,10.4-4.3,6.3-6.9,13.1-7.3,20.8,0,1.6-.1,3.2-.1,4.8,0,24.1,0,48.2,0,72.3,0,2.4.1,4.8.3,7.1,0,.8.1,1.6.3,2.4,1.3,6,3.6,11.5,7.2,16.4,2.2,2.9,4.6,5.7,7.3,8.1,5.1,4.6,10.7,8.4,17,11.2,6.4,2.8,13.1,4.8,20.1,5.5.6,0,1.3.1,1.9.2,2.2.4,4.4.5,6.6.5,2.1,0,4.1,0,6.2,0,.5,0,.9,0,1.4.2.3,0,.6.4.7.6.3.7.3,1.6.3,2.3,0,6.3,0,12.7,0,19,0,3.2.2,6.4.7,9.5.5,3.5,1.6,6.8,3.1,10,2.2,4.6,5,8.8,8.6,12.5,9.1,9.3,20,15.4,32.7,18.3,2.6.6,5.3.9,8,1.3,2.2.3,4.4.5,6.6.5,1.6,0,3.2,0,4.8,0h123.6c1.3,0,2.5,0,3.8,0,1.3,0,2.5-.3,3.7-.8,1.8-.8,3.1-2.1,3.9-4,.5-1.2.8-2.4.8-3.7s0-2.2,0-3.3c0-25.5,0-51,0-76.6,0-1.1,0-2.2,0-3.3ZM163.3,170.3c.4-2.5,1.4-4.8,2.8-7,1.7-2.7,3.9-5,6.4-6.9,3.6-2.7,7.5-4.7,11.9-5.8,2.6-.6,5.3-1.1,8-1.2.9,0,1.9,0,2.8,0,10.6,0,21.2,0,31.8,0,.9,0,1.9,0,2.8.1.6,0,1.1.7,1.2,1.3s0,1.3,0,1.9c0,14.7,0,29.4,0,44.1,0,.8,0,1.6-.2,2.3,0,.3-.7.9-1,.9-.9,0-1.9.2-2.8.2-5.7,0-11.4,0-17.1,0h-12.8c-9.7,0-19.3,0-29,0-1.3,0-2.5,0-3.8,0-.8,0-1.6-.8-1.6-1.5,0-.6,0-1.3,0-1.9,0-6.8,0-13.6,0-20.4,0-2.1.2-4.1.5-6.1Z"/>
  <path class="cls-3" d="M704.8,158.6c-.3-.4-.6-.7-1.1-.8-1.1-.4-2.3-.3-3.4-.3-9.9,0-19.8,0-29.8,0-1.8,0-3.7,0-5.5-.2-3.2-.4-5.6-2.2-6.7-5.2-.3-.9-.4-1.8,0-2.7,1-3.1,3.9-5.5,7.1-5.7,1.6-.1,3.2-.1,4.8-.1,7.6,0,15.2,0,22.8,0,1.2,0,2.3,0,3.4-.3.6-.1,1.2-.6,1.5-1.3.6-1.3.6-2.7,0-4-.3-.7-.9-1.1-1.5-1.2-.7-.1-1.4-.2-2-.2-2.5,0-5.1,0-7.6,0-.9,0-1.8-.2-2.7-.3-.6,0-.8-.4-.7-.9.4-2,1-4,1-6.1,0-2.9-.9-5.4-2.8-7.6-3-3.4-6.8-5.5-11.3-6-2.5-.3-5.1-.3-7.6.1-.9.1-1.8.3-2.7.6-2.9,1-5.4,2.6-7.4,4.9-2.1,2.3-3.3,5-3.2,8.2,0,.5,0,.9,0,1.4,0,1.4.5,2.7,1.2,3.9.5,1,1.2,2,2,2.8.6.7,1.3,1.3,1.7,2.2,0,.2,0,.5,0,.6-.9,1.1-1.8,2.1-2.6,3.2-1.4,1.9-2.3,4-2.2,6.4,0,.7,0,1.4,0,2.1,0,1.2.4,2.3.9,3.3.6,1.3,1.4,2.4,2.3,3.4,3.3,3.5,7.4,5.4,12.2,5.7,1.6,0,3.2,0,4.8,0,4.6,0,9.2,0,13.8,0s11.1,0,16.6,0c1.2,0,2.3-.1,3.5-.2.7,0,1.6-.9,1.9-1.8.4-1.4.2-2.7-.6-3.9ZM658.3,127.8c1.2-3,3.4-4.8,6.7-5.2.7,0,1.4-.1,1.9-.1.6,0,1.1,0,1.6,0,3,.2,5.2,1.8,6.6,4.4.8,1.5.8,3.1.1,4.6-.5,1.1-1.2,2-2.1,2.7-1.9,1.4-4,2.2-6.4,2.2-2.4,0-4.5-.9-6.3-2.4-1.1-.9-1.7-2.1-2.1-3.5-.3-.9-.3-1.8,0-2.7Z"/>
  <path class="cls-3" d="M774.4,164.5c-4.4,0-8.8,0-13.2,0-1.6,0-3.2,0-4.8,0-4.6-.2-8.5-2.1-11.7-5.2-1.2-1.1-2.1-2.4-2.8-3.9-.5-1.1-.9-2.1-.9-3.3,0-.9,0-1.8-.1-2.8,0-6.2,0-12.5,0-18.7,0-.5,0-.9,0-1.4,0-3.2,1.3-5.8,3.4-8.1,2.1-2.3,4.6-3.8,7.5-4.8.9-.3,1.8-.5,2.7-.6,1.8-.2,3.7-.3,5.5-.3,10.8,0,21.7,0,32.5,0,.9,0,1.8.2,2.7.3.8,0,1.2.6,1.6,1.2.6,1,.6,2.2.3,3.3-.3,1-1.6,2.1-2.5,2.1-1.6,0-3.2.1-4.8.1-9.5,0-18.9,0-28.4,0-1.8,0-3.7,0-5.5.3-2.9.6-5,2.3-5.9,5.2-.2.7-.4,1.4-.4,2,0,6.7-.1,13.4,0,20.1,0,4.3,3.5,6.4,6.5,7.1.7.2,1.4.2,2.1.2,9.2,0,18.5,0,27.7,0,.4,0,.9,0,1.3-.3.4-.2.8-.6.9-1,.2-.9.3-1.8.3-2.7,0-3.9,0-7.8,0-11.8,0-.9.1-1.8.2-2.7,0-.8,1-1.9,1.7-2,1.8-.4,3.6-.5,5.4,0,.7.2,1.1.9,1.4,1.5.2.4.3.9.3,1.3,0,7.2,0,14.3,0,21.5,0,.4-.2.9-.3,1.3-.1.7-1.2,1.8-1.9,1.8-1.1,0-2.3.2-3.4.2-5.8,0-11.5,0-17.3,0h0Z"/>
  <path class="cls-3" d="M443.1,164.5c-4.4,0-8.8,0-13.2,0-1.6,0-3.2,0-4.8,0-4.6-.2-8.5-1.9-11.8-5.1-1.4-1.3-2.4-2.8-3.1-4.5-.3-.9-.5-1.8-.7-2.7-.1-.9-.1-1.8-.1-2.8,0-6.2,0-12.5,0-18.7,0-.7,0-1.4,0-2.1,0-2.4,1-4.5,2.4-6.4,2.3-3.1,5.4-5,9-6.2.7-.2,1.4-.3,2-.4,1.8-.1,3.7-.3,5.5-.3,10.8,0,21.7,0,32.5,0,.9,0,1.8,0,2.7.2,1,.2,1.6.8,1.9,1.8.4,1.1.3,2.3-.2,3.3-.4.9-1.2,1.5-2.1,1.6-1.4.1-2.8.1-4.1.1-9.7,0-19.4,0-29.1,0-1.8,0-3.7,0-5.5.3-2.9.5-5,2.2-6,5.1-.2.6-.3,1.4-.3,2,0,6.7,0,13.4,0,20.1,0,4.5,4.1,6.9,7.1,7.3.7,0,1.4.1,2.1.1,9,0,18,0,27,0,.5,0,1,0,1.3-.2.4-.2.8-.6.9-1,.2-.6.3-1.4.3-2,0-3.9,0-7.8,0-11.8,0-1.1.1-2.3.2-3.4,0-1,1.2-2.2,2.2-2.3,1.4-.2,2.8-.2,4.1,0,1.1.1,2.1,1.1,2.3,2.3,0,.5.2.9.2,1.4,0,6.9,0,13.8,0,20.8,0,.7-.3,1.3-.5,2-.3.7-.8,1.1-1.5,1.3-.9.2-1.8.3-2.7.3-6,0-12,0-18,0h0Z"/>
  <path class="cls-3" d="M961.2,147.1c0,4.8,0,9.7,0,14.5,0,1.2,0,2.3,0,3.5,0,2.6-1.1,4.9-2.7,7-2.2,2.8-5.1,4.6-8.5,5.7-.6.2-1.3.3-2,.4-4.1.5-8.3.5-12.4.2-.2,0-.5,0-.7-.2-.6-.3-1.2-.6-1.4-1.4-.4-1.2-.4-2.3,0-3.4.3-.9,1-1.5,2-1.7.9-.2,1.8-.2,2.7-.3,2.3,0,4.6,0,6.9-.1,2.5-.1,4.4-1.3,5.9-3.2.4-.5.6-1.2.7-1.9,0-.7-.5-1.5-1-1.5-.9,0-1.8-.2-2.7-.2-5.1,0-10.2,0-15.2,0-1.8,0-3.7,0-5.5-.1-4.3-.2-8-2-11.2-4.9-2.7-2.4-4.2-5.6-4.2-9.2,0-7.1,0-14.3,0-21.5,0-.2,0-.5.1-.7,0-.9,1.3-2.2,2.3-2.4,1.4-.2,2.7-.2,4.1,0,1,.2,2.2,1.4,2.3,2.3,0,1.1.2,2.3.2,3.4,0,5.1,0,10.2,0,15.2,0,1.4,0,2.8.1,4.1,0,2,1.1,3.5,2.7,4.6,1.3.9,2.8,1.6,4.5,1.7.2,0,.5,0,.7,0,7.2,0,14.3,0,21.5,0,1.1,0,2.1-1.1,2.1-2.3,0-.7.1-1.4.1-2.1,0-1.4,0-2.8,0-4.2,0-5.8,0-11.5,0-17.3,0-1.2,0-2.3.2-3.4,0-1,1.2-2.2,2.3-2.3,1.1,0,2.3-.1,3.4,0,1.4,0,2.7,1.4,2.8,2.6,0,1.2.1,2.3.1,3.5,0,5.1,0,10.2,0,15.2Z"/>
  <path class="cls-3" d="M869.6,139.4c0-2.6-1.1-4.9-2.8-7-2.4-2.9-5.5-4.9-9.2-5.8-2-.5-4-.9-6.1-.9-4.4,0-8.8,0-13.1,0-2.1,0-4.1.4-6.1.9-3.2.8-6,2.4-8.3,4.7-2.4,2.4-3.7,5.3-3.8,8.7,0,3.5,0,6.9,0,10.4,0,3.6,1.5,6.7,4.2,9.2,3.2,2.9,6.8,4.7,11.2,4.9,3,.1,6,.1,9.4.2,3.1,0,6.6,0,10-.3,5.1-.4,9.2-2.7,12.4-6.8,1.4-1.9,2.3-4.1,2.4-6.4.1-3.9.1-7.9,0-11.8ZM860.5,150.9c0,.5-.1.9-.3,1.4-.2.6-.4,1.4-.9,1.9-1.5,1.8-3.4,3.1-5.9,3.2-3,.2-6,.1-9,.2h0c-2.5-.1-5.1,0-7.6-.1-2.2,0-4-.9-5.6-2.3-1.1-.9-1.7-2.1-2-3.5,0-.5-.2-.9-.2-1.4,0-3.5,0-6.9,0-10.3,0-1.2.3-2.3,1-3.3.8-1.2,1.8-2.1,3.1-2.6,1.5-.7,3-1.2,4.6-1.2,4.6,0,9.2,0,13.8,0,1.4,0,2.7.5,4,.9,1.3.5,2.4,1.3,3.3,2.4.6.7,1,1.5,1.2,2.4,0,.5.2.9.2,1.4,0,3.7,0,7.4,0,11Z"/>
  <path class="cls-3" d="M557.5,139.2c0-2.1-.8-4.1-2-5.8-1.9-2.7-4.4-4.7-7.5-6-2.6-1-5.3-1.7-8.1-1.7-4.6,0-9.2,0-13.8,0-2.6,0-5.1.5-7.5,1.4-3.1,1-5.8,2.8-7.8,5.5-1.4,1.9-2.5,3.9-2.6,6.3-.1,4.4,0,8.8,0,13.1,0,.7.2,1.4.4,2,.7,2,1.7,3.8,3.3,5.2,3.3,3.1,7.1,5,11.7,5.2,3,.1,6,.1,9.2.1,3,0,6.3,0,9.5-.2,4.6-.2,8.4-2.2,11.6-5.4,2.2-2.2,3.4-5,3.6-8,.2-3.9.1-7.9,0-11.8ZM548.4,151.2c0,1.7-.9,3.1-2.2,4.1-1.5,1.2-3.1,2-5,2.1-2.8,0-5.5,0-8.3,0h0c-2.5,0-5.1,0-7.6,0-2.2,0-4.1-.8-5.7-2.1-1.1-.9-1.9-2-2.2-3.4-.2-.9-.4-1.8-.4-2.7,0-2.8,0-5.5,0-8.3.1-3.9,2.1-6.4,5.9-7.5,1.1-.3,2.2-.6,3.4-.6,4.4,0,8.7,0,13.1,0,1.6,0,3.2.4,4.7,1,1.3.5,2.4,1.4,3.3,2.5.6.7,1,1.6,1.1,2.5.1.9.2,1.8.2,2.8,0,3.2,0,6.4-.1,9.7Z"/>
  <path class="cls-3" d="M1014.5,164.5c-1.2,0-1.6,0-2.1,0-.9,0-1.8-.3-2.6-.9-2.5-2-5-4.1-7.5-6.1-2.7-2.2-5.4-4.3-8.1-6.5-.7-.6-1.8-.5-2.6,0-1.3,1-2.6,2-3.8,3-3.8,3.1-7.5,6.1-11.2,9.2-1.1.9-2.4,1.3-3.8,1.3-.9,0-1.8-.1-2.7-.3-1.3-.2-1.9-2.2-1.2-3.3.6-1,1.4-1.8,2.3-2.5,3.9-3.2,7.9-6.4,11.8-9.6,1.1-.9,2.2-1.7,3-2.8.3-.4.4-.9,0-1.3-.4-.6-.8-1.1-1.3-1.5-3-2.5-6.1-5-9.1-7.4-1.8-1.5-3.6-2.9-5.3-4.4-.5-.4-.9-1-1.4-1.6-.9-1.1-.5-3,.8-3.5,1.8-.7,3.6-.7,5.3.2,1,.5,1.9,1.3,2.8,2,4.7,3.7,9.3,7.5,14,11.3.5.4,1.4.4,1.9,0,.8-.5,1.5-1,2.2-1.6,3.9-3.2,7.9-6.4,11.8-9.7.7-.6,1.4-1.1,2.2-1.7,1.6-1.1,3.4-1.3,5.3-.8,1.4.3,2.2,2,1.7,3.2-.4.9-.9,1.6-1.6,2.2-3.4,2.8-6.8,5.5-10.2,8.3-1.8,1.5-3.5,3-5.3,4.5-.8.7-.7,1.6.1,2.3.5.4,1.1.9,1.6,1.3,4.1,3.4,8.2,6.7,12.3,10.1.9.7,1.7,1.6,2.5,2.4.3.3.5.8.6,1.2.4,1-.4,2.6-1.4,2.7-.7.1-1.4.2-1.4.2Z"/>
  <path class="cls-3" d="M610.2,164.5c-2.3,0-3.5-.5-4.6-1.4-4.5-3.7-8.9-7.3-13.4-10.9-.7-.6-1.5-1-2.3-1.5-.4-.3-.9-.3-1.3,0-.8.5-1.5,1-2.3,1.6-3.8,3.1-7.5,6.1-11.2,9.2-.9.7-1.8,1.4-2.7,2.1-.8.6-1.6.8-2.6.9-1.2,0-2.3,0-3.4-.2-.5-.1-1.3-.9-1.3-1.4-.2-1,0-1.9.6-2.6,1-1,2-1.9,3-2.8,3.7-3.1,7.5-6.1,11.3-9.2.9-.7,1.7-1.5,2.5-2.4.3-.3.3-.8,0-1.3-.4-.5-.9-1.1-1.4-1.5-4.1-3.4-8.2-6.7-12.3-10.1-1.1-.9-2.1-1.8-3-2.8-.3-.3-.5-.8-.7-1.2-.4-1,.2-2.5,1.2-2.9,1.8-.7,3.6-.7,5.3.3.8.4,1.5,1,2.3,1.6,4.9,3.9,9.7,7.8,14.6,11.7.5.4,1.3.4,1.9,0,1.1-.8,2.2-1.6,3.3-2.5,3.6-2.9,7.1-5.8,10.7-8.8.7-.6,1.4-1.2,2.2-1.7,1.6-1.1,3.4-1.2,5.3-.8,1.6.4,2.4,2.5,1.4,3.9-.4.5-.8,1.1-1.4,1.6-3,2.5-6.1,5-9.1,7.5-2.1,1.8-4.2,3.6-6.3,5.4-.8.7-.7,1.6.1,2.3.9.7,1.7,1.5,2.6,2.2,3.6,2.9,7.2,5.8,10.7,8.7,1.1.9,2.1,1.8,3,2.9.6.7.8,1.6.6,2.6-.1.5-.8,1.3-1.4,1.4-.9.1-1.8.2-1.9.2Z"/>
  <path class="cls-9" d="M473,149.8c0-2.5,0-5.1,0-7.6,0-1.2,0-2.3,0-3.5,0-2.4,1-4.5,2.5-6.3,2.2-2.8,5.1-4.6,8.5-5.7,2.4-.7,4.9-1.2,7.5-1.1,2.3,0,4.6,0,6.9.2,1.3,0,2.5,1.3,2.6,2.8,0,.7,0,1.4,0,2.1,0,.8-1,1.7-1.8,1.8-.7,0-1.4.2-2,.2-1.8,0-3.7,0-5.5,0-1.9,0-3.7.4-5.4,1.2-1.8.7-3.1,2-3.8,3.8-.3.6-.5,1.3-.5,2,0,1.4,0,2.8,0,4.1,0,5.3,0,10.6,0,15.9,0,.9-.1,1.8-.2,2.7,0,.8-1,1.7-1.8,1.8-1.4.3-2.7.2-4.1.1-1.1,0-2.2-1.1-2.3-2.2,0-.9-.2-1.8-.2-2.7,0-3.2,0-6.5,0-9.7h0Z"/>
  <path class="cls-9" d="M876.7,150.3c0-3.7,0-7.4,0-11,0-3.2,1.4-5.8,3.6-8,2.3-2.3,5.1-3.9,8.3-4.7,2.3-.5,4.5-.9,6.8-.9,2.3,0,4.6-.2,6.9.2,1,.2,2.1,1.2,2.2,2.3.1.9.2,1.8,0,2.7-.1.5-.9,1.4-1.3,1.5-.7.1-1.4.3-2,.3-2.1,0-4.1,0-6.2,0-1.6,0-3.2.4-4.7,1-.6.3-1.2.6-1.8,1-1.8,1.3-2.8,3-3,5.2-.1,1.6,0,3.2,0,4.8,0,5.1,0,10.1,0,15.2,0,.9-.2,1.8-.3,2.7,0,.5-.9,1.3-1.4,1.4-1.8.5-3.6.5-5.4,0-.7-.2-1.1-.8-1.3-1.5-.2-.7-.3-1.4-.3-2,0-3.5,0-6.9,0-10.4h0Z"/>
  <path class="cls-3" d="M813.1,140.7c0,6.4,0,12.9,0,19.3,0,.9,0,1.8-.3,2.7-.2.6-.6,1.2-1.4,1.4-1.8.5-3.6.5-5.4,0-.7-.2-1.1-.8-1.2-1.5-.2-1.1-.3-2.3-.3-3.4,0-10.1,0-20.2,0-30.4,0-3.2,0-6.4,0-9.7,0-.7.2-1.4.3-2,0-.4,1-1.3,1.4-1.4,1.8-.5,3.6-.5,5.4.1.7.2,1.2.8,1.3,1.5.2,1.1.3,2.3.3,3.4,0,6.7,0,13.3,0,20h0Z"/>
  <path class="cls-13" d="M871,199.9c0,2.6,0,5.1-.2,7.7,0,.7-.5,1.2-1.2,1.5-.6.3-2.2-.3-2.3-.9,0-.7-.2-1.4-.2-2,0-2.3-.1-4.6-.1-6.9,0-.6-.2-.9-.8-.8-.4,0-.8.3-1.1.7-.6,1-1.2,2-1.7,3-1,1.8-2,3.6-3,5.4-.2.4-.5.7-.8,1.1-.6.8-2.4.8-3.1,0-1.6-2.2-2.7-4.8-4.2-7.2-.6-1-1-2.1-1.9-2.9-.1-.1-.4-.1-.6-.1-.2,0-.5.1-.6.2-.1,1.1-.2,2.3-.2,3.4,0,1.6,0,3.2,0,4.8,0,.4-.2.9-.3,1.3,0,.4-1.3,1.1-1.7,1.1-.4,0-1.5-.9-1.6-1.3,0-.2-.2-.4-.2-.6-.2-5.3-.2-10.6,0-15.9,0-1,1.3-2,2.5-2,.9,0,1.8.4,2.4,1.2.8,1.1,1.4,2.3,2.1,3.5,1.7,3,3.1,6.2,5,9.1.4.6,1.2.6,1.6-.1.4-.6.8-1.1,1.1-1.7,1.5-2.8,3-5.7,4.5-8.5.4-.8,1-1.6,1.5-2.3.4-.5,1.1-.8,1.8-1,1.7-.4,3,.8,3,2,.1,2.8.1,5.5.2,8.2Z"/>
  <path class="cls-2" d="M455.9,189.5c2.1,0,4.2,0,6.2,0,.4,0,.9.2,1.3.3.5,0,1.2,1.2.9,1.6-.2.4-.6.8-.9.8-.9.2-1.8.3-2.7.3-3.5,0-6.9,0-10.4,0-.9,0-1.8.2-2.7.7-1.1.6-1.7,1.5-1.7,2.8,0,.6.6,1.5,1.1,1.5.9.1,1.8.3,2.7.3,3.2,0,6.5,0,9.7.1.7,0,1.3.4,1.8.8.4.4.3,1.5-.2,1.8-.6.3-1.3.6-1.9.6-2.8,0-5.5,0-8.3.1-1.1,0-2.3.1-3.4.2-1.2.1-1.8,1.4-1.3,2.6.4.9,1,1.5,2,1.8.9.2,1.8.4,2.7.4,3.7,0,7.4,0,11.1.1.7,0,1.3.4,1.9.6.5.2.7,1.4.2,1.7-.4.3-.7.5-1.1.8-.2.1-.4.1-.7.1-4.4,0-8.8,0-13.2,0-1.4,0-2.7-.5-4-1.1-1.5-.8-2.5-2-2.9-3.7-.1-.4-.3-.9-.3-1.4,0-2.5,0-5.1,0-7.6,0-.7.2-1.4.4-2,.3-1.1,1-2.1,2-2.7,1.3-.9,2.8-1.6,4.5-1.6,2.3,0,4.6,0,6.9,0,0,0,0,0,0,0Z"/>
  <path class="cls-16" d="M895.1,209.7c-2.1,0-4.1,0-6.2,0-1.6,0-3.2-.5-4.6-1.3-1.7-1-2.9-2.4-3-4.4-.2-3-.2-6,0-9,0-1.7,1.1-3,2.5-4,1.4-.9,2.9-1.5,4.5-1.6,4.6,0,9.2-.3,13.8,0,.6,0,1.1.6,1.4,1.3.2.5,0,.8-.5,1.1-.6.3-1.3.5-2,.5-3.5,0-6.9,0-10.4,0-.9,0-1.8.2-2.7.3-1.7.3-2.7,1.6-2.6,3.5,0,.5.8,1.3,1.3,1.4,1.1,0,2.3.2,3.4.2,2.8,0,5.5,0,8.3,0,.4,0,.9.2,1.3.3.4,0,1.3,1.2,1.2,1.5-.2.4-.5.7-.8,1-.2.2-.4.3-.6.3-1.4,0-2.8.2-4.1.2-2.8,0-5.5.1-8.3.2-.8,0-1.3.5-1.6,1.1-.6,1.3.3,3,1.6,3.3.7.2,1.3.4,2,.4,3.2,0,6.5,0,9.7,0,1.1,0,2.3,0,3.4.2.4,0,.8.4,1.1.7.5.3.4,1.4-.1,1.7-.4.2-.8.6-1.2.6-2.3.1-4.6.1-6.9.2,0,0,0,0,0,0Z"/>
  <path class="cls-17" d="M430.4,200.2c-.2-.5-.2-.9,0-1.3.3-.6.6-1.2.9-1.9.7-1.7.3-3.2-.7-4.5-.6-.7-1.2-1.4-2.1-1.8-1.2-.6-2.5-1.2-3.9-1.2-4.3,0-8.7,0-13.1,0-.2,0-.4,0-.7,0-.4,0-1.4,1-1.4,1.4,0,.4-.3.9-.3,1.3,0,2.3,0,4.6,0,6.9h-.1c0,2.7.1,5.5.2,8.2,0,.6,1.2,1.9,1.7,2,.2,0,.5,0,.7,0,4.1,0,8.2,0,12.4,0,1.4,0,2.7-.4,4-.9,1.1-.4,2-1.2,2.6-2.1,1-1.4,1.3-2.9.6-4.5-.3-.6-.5-1.3-.9-1.9ZM414.4,192.6c3.5-.3,6.9-.3,10.4,0,.7,0,1.3.5,1.9.8.5.4.9,1,.9,1.7,0,1-.4,2-1.2,2.2-.7.2-1.3.5-2,.5-1.6.1-3.2.1-4.5.1-2.2-.1-4.1.2-5.9-.3-.5-.1-1.3-.8-1.4-1.4,0-.7-.1-1.4,0-2.1,0-.9.9-1.7,1.8-1.8ZM426.6,205.8c-.6.3-1.3.6-1.9.7-3.4.4-6.9.4-10.3,0-.7,0-1.8-1-1.8-1.8,0-.7,0-1.4,0-2.1,0-.7,1.1-1.7,1.8-1.8.5,0,.9-.2,1.4-.2,1.4,0,2.8,0,4.1,0h0c1.4,0,2.8,0,4.1.1.9,0,1.8.3,2.6.9.6.4,1,.9,1.1,1.7,0,.8-.4,2.1-1,2.4Z"/>
  <path class="cls-10" d="M1004,209.7c-2.1,0-4.1,0-6.2,0-.4,0-.9-.2-1.3-.3-.4,0-1.4-1.2-1.2-1.5.2-.4.5-.8.9-1,.4-.2.8-.4,1.3-.4,3.5,0,6.9,0,10.4-.1,1.1,0,2.3,0,3.4-.2.4,0,.9-.3,1.3-.5.8-.4,1.3-1.5,1.1-2.3-.2-.8-.7-1.2-1.3-1.5-.6-.3-1.3-.5-2-.5-2.1,0-4.1,0-6.2,0-1.6,0-3.2-.3-4.8-.7-.9-.3-1.7-.7-2.4-1.3-3-2.8-2.4-5.9.6-8.2,1.3-1,2.9-1.5,4.5-1.6,4.6,0,9.2-.3,13.8.1.6,0,1.1.6,1.4,1.3.2.5,0,.8-.5,1.1-.6.3-1.3.5-2,.5-3.5,0-6.9,0-10.4,0-.9,0-1.8,0-2.7.3-.6.2-1.3.5-1.8.9-.6.4-.8,1.1-.7,1.8,0,.7.5,1.3,1.1,1.6.6.2,1.3.5,2,.5,2.5,0,5.1,0,7.6.1,1.6,0,3.2.4,4.7,1.2,1.7.9,2.9,2.3,3.2,4.2,0,.4,0,.9,0,1.4-.5,1.9-1.7,3.3-3.4,4.1-1.3.6-2.6,1-4,1-2.1,0-4.1,0-6.2,0,0,0,0,0,0,0Z"/>
  <path class="cls-16" d="M826,189.5c1.8,0,3.7,0,5.5,0,.5,0,.9,0,1.4.2.7.2,1.2.5,1.4,1.3,0,.2.2.6,0,.6-.3.3-.7.6-1.1.7-.9.2-1.8.2-2.7.2-3,0-6,0-9,0-.9,0-1.8,0-2.7.3-.6.2-1.3.5-1.8.9-.9.6-1,2.3-.1,3,.5.5,1.1.8,1.8.9,1.1.1,2.3.2,3.4.2,1.8,0,3.7,0,5.5,0,1.4,0,2.7.5,4,1.1,1.7.9,2.9,2.3,3.3,4.2,0,.4,0,.9,0,1.4-.5,1.9-1.7,3.3-3.4,4.1-1.3.6-2.6,1-4,1-4.4,0-8.7,0-13.1,0-.2,0-.4-.1-.7-.2-.4,0-1.4-1.2-1.2-1.5.2-.4.5-.7.8-1,.2-.2.4-.3.6-.3.9,0,1.8-.2,2.7-.2,3.4,0,6.9,0,10.3,0,.9,0,1.8-.2,2.7-.6.7-.4,1.2-1.3,1.1-2.3-.1-.8-.7-1.2-1.3-1.5-.6-.3-1.3-.5-2-.5-2.1,0-4.1,0-6.2-.1-1.9,0-3.7-.3-5.4-.9-1.1-.4-2-1.2-2.7-2.1-1.7-2.4-1-5.7,1.5-7.2,1.4-.8,2.9-1.5,4.5-1.5,2.3,0,4.6,0,6.9,0h0Z"/>
  <path class="cls-15" d="M716.1,195.1c0-2-1.3-3.4-3-4.3-1.2-.7-2.5-1.2-3.9-1.2-4.4,0-8.8,0-13.1,0-1.2,0-2.3,1-2.3,2.1,0,2.5-.1,5.1-.2,7.8,0,2.6.1,5.3.2,8.1,0,.7,1,1.9,1.7,1.9.2,0,.5.1.7.1,4.1,0,8.3,0,12.5,0,1.4,0,2.7-.4,4-.9,2-.9,3.5-2.4,3.5-4.7,0-3,0-6,0-9ZM712.3,203.8c-.2,1-1.3,2.2-2.3,2.3-.7.1-1.4.3-2,.3-1.4,0-2.8,0-4.1,0h0c-1.6,0-3.2,0-4.8-.1-.6,0-1.8-1.2-1.9-1.8-.2-3.4-.4-6.9.1-10.3,0-.5.9-1.3,1.4-1.4.2,0,.4-.2.7-.2,3,0,6,0,9,0s.9.1,1.4.2c1.3.2,2.6,1.5,2.7,2.8.3,2.8.4,5.5,0,8.2Z"/>
  <path class="cls-8" d="M531.5,198.4c0,1.8,0,3.7-.2,5.5-.2,2.2-1.5,3.8-3.5,4.8-1.2.6-2.6,1-4,1-2.5,0-5.1,0-7.6,0-1.4,0-2.7-.4-4-.9-2.3-1-3.7-2.8-3.8-5.3-.1-3.9,0-7.8,0-11.7,0-.8.5-1.3,1-1.7.4-.3.8-.3,1.3-.3.5,0,1.3.8,1.3,1.4,0,1.6.1,3.2.2,4.8,0,2.5,0,5.1.2,7.6,0,1,1.1,2.2,2.1,2.4.2,0,.4.1.7.2,3.2.3,6.4.3,9.6,0,.2,0,.4-.2.6-.2.8-.2,1.6-1.2,1.7-2,0-.9.2-1.8.2-2.7,0-2.5,0-5.1,0-7.6,0-.7,0-1.4.1-2.1,0-.9,1-1.8,1.8-1.8.7,0,1.8,1.1,1.9,1.8,0,.5.2.9.2,1.4,0,1.8,0,3.7,0,5.5,0,0,0,0,0,0Z"/>
  <path class="cls-14" d="M759.4,209.7c-2.1,0-4.2,0-6.2,0-1.4,0-2.7-.4-4-1-1.8-.8-2.9-2.2-3.4-4.1,0-.5-.2-.9-.2-1.4,0-2.3,0-4.6,0-6.9,0-.7.2-1.4.4-2,.4-1.7,1.4-2.9,2.9-3.6,1.2-.6,2.5-1.2,4-1.2,4.4,0,8.8,0,13.1,0,.4,0,.9.2,1.3.4.5.2.6.6.7,1.1,0,.5,0,.8-.6,1.1-.6.3-1.3.5-2,.5-3.5,0-6.9,0-10.4,0-.7,0-1.4,0-2.1.2-.7.1-1.3.4-1.9.7-.8.5-1.4,1.2-1.5,2.2-.3,2.8-.3,5.5,0,8.3.1.7,1,1.8,1.8,1.9.9.2,1.8.4,2.7.5,3.2,0,6.5,0,9.7,0,.9,0,1.8.1,2.7.2.2,0,.5.2.6.3.3.3.7.6.9,1,.2.4-.6,1.4-1.1,1.5-.4,0-.9.3-1.3.3-2.1,0-4.1,0-6.2,0,0,0,0,0,0,0Z"/>
  <path class="cls-14" d="M975.4,209.7c-2.1,0-4.2,0-6.2,0-1.4,0-2.7-.4-4-1-2-1-3.3-2.6-3.5-4.8-.2-2.8-.2-5.5,0-8.3.1-2.2,1.3-3.9,3.3-4.9,1.2-.6,2.5-1.2,3.9-1.2,4.4,0,8.8,0,13.1,0,.4,0,.9.3,1.3.4.5.2.6.6.7,1.1,0,.5,0,.9-.6,1-.7.2-1.3.4-2,.4-3.5,0-6.9,0-10.4,0-.9,0-1.8.2-2.7.3-1.4.3-2.6,1.5-2.6,2.8,0,2.5,0,5.1,0,7.6,0,1.3,1.3,2.6,2.7,2.7,1.4.1,2.8.2,4.1.2,3.2,0,6.5,0,9.7.1.4,0,.9.2,1.3.5.4.3.6.6.8,1,.1.3-.9,1.4-1.3,1.5-.4,0-.9.2-1.3.3-2.1,0-4.2,0-6.2,0h0Z"/>
  <path class="cls-12" d="M660.4,198.5c.2-2.1-.3-4.9.3-7.6.1-.5.9-1.1,1.6-1,.2,0,.5,0,.7.1.8.5,1.6,1,2.2,1.6,3.9,3.5,7.9,7.1,11.8,10.7.4.3.8.6,1.2.5.4,0,.8-.4,1.1-.6,0-2.5.1-5.1.2-7.6,0-.9,0-1.8.1-2.8,0-.4.3-.9.5-1.3.2-.5.6-.6,1.1-.6.6,0,.9,0,1.1.6.2.4.5.8.5,1.3,0,5.3,0,10.6,0,15.9,0,.7-.6,1.4-1.1,1.6-.7.2-1.4,0-2-.3-.4-.3-.8-.5-1.1-.8-1-.9-2-1.9-3-2.8-3-2.8-6.1-5.7-9.2-8.5-.3-.3-.8-.5-1.2-.5-.4,0-.9.4-1,.7-.2.9-.2,1.8-.3,2.7,0,2.3,0,4.6,0,6.9,0,.5-.2.9-.3,1.3-.1.6-.8,1.2-1.4,1.2-.2,0-.5,0-.7,0-.3-.3-.7-.7-.8-1.1-.2-.7-.2-1.4-.3-2,0-2.3,0-4.6,0-7.6Z"/>
  <path class="cls-1" d="M497.3,206.7c-2.8-5-5.5-10.1-8.3-15.1-.2-.4-.5-.7-.8-1.1-.6-.9-2.4-.8-3,0-.1.2-.3.3-.4.5-2.9,5.2-5.8,10.5-8.6,15.7-.1.2-.2.4-.2.7,0,.2,0,.4,0,.7,0,.5.3.9.7,1.1.4.1.9,0,1.3,0,1.1-.5,1.6-1.6,2.3-2.5.5-.6,1.1-.8,1.8-.9.4,0,.9-.1,1.4-.1,2.5,0,5.1,0,7.6,0,1,0,1.7.5,2.3,1.3.6.7,1.1,1.4,1.8,2.1.5.5,1.2.5,1.9.2.5-.2.7-.6.7-1.1-.1-.4-.2-.9-.4-1.3ZM489.5,201.6c0,.2-.4.3-.6.3-.7.1-1.4.2-2.2.3-.7-.1-1.6-.2-2.5-.4-.5,0-1-1.1-.8-1.7.6-1.5,1.3-2.9,2.3-4.2.2-.3.7-.7,1-.7.4,0,.8.5,1,.8.9,1.3,1.7,2.7,2.1,4.3,0,.3-.2.8-.4,1.2Z"/>
  <path class="cls-5" d="M649.2,206.8c-2.8-5.2-5.7-10.4-8.6-15.6-.2-.4-.6-.7-.9-1-.3-.3-.8-.5-1.3-.4-.4.2-.9.3-1.2.6-.5.5-.9,1-1.2,1.6-2.8,5-5.5,10-8.3,15-.1.2-.2.4-.2.7,0,.2,0,.4,0,.7.3.9,1.4,1.3,2.2.8.8-.5,1.4-1.2,1.8-2,.6-1.1,1.6-1.6,2.8-1.6,2.8,0,5.5,0,8.2,0,.2,0,.5,0,.7.1.6.2,1.3.4,1.7,1,.6,1,1.2,2,2.3,2.5.4.2.9.1,1.3,0,.5-.1.7-.6.7-1.1,0-.4,0-.9-.2-1.3ZM641.3,202.4c-.7.1-1.3.2-2.1.4-1.1-.1-2.2-.2-3.3-.4-.6,0-1.2-1-1.1-1.5.5-1.8,1.6-3.3,2.4-4.9.4-.8,1.8-.8,2.3,0,.9,1.6,1.9,3.1,2.5,4.8.2.6-.2,1.5-.8,1.6Z"/>
  <path class="cls-14" d="M926.5,189.4c3,0,6,.1,8.9.3.4,0,.8.5,1.1.8.4.4,0,1.6-.4,1.7-.4.1-.9.3-1.3.3-1.4,0-2.8,0-4.1,0-2.2,0-2.7,1.2-2.8,3.1,0,2.5,0,5,0,7.6,0,1.4,0,2.7-.1,4.1,0,.8-.5,1.2-1,1.7-.4.3-.8.4-1.3.2-.5-.1-1.4-.9-1.4-1.4,0-2.3-.1-4.6-.2-6.9,0-2.3.2-4.6-.2-6.9,0-.5-.8-1.4-1.3-1.4-1.8-.1-3.7-.2-5.5-.3-.4,0-.9-.3-1.3-.4-.6-.2-.9-1.3-.5-1.7.3-.3.7-.6,1.1-.7.7-.2,1.4-.2,2-.2,2.8,0,5.5,0,8.3,0,0,0,0,0,0,0Z"/>
  <path class="cls-7" d="M553.3,189.4c3,0,6,.1,8.9.2.8,0,1.2.5,1.6,1.1.3.5-.2,1.5-.7,1.6-1.1.3-2.3.3-3.4.3-1.1,0-2.3,0-3.4.3-.4.1-.8.6-.9,1-.2.6-.3,1.3-.3,2,0,3.4,0,6.9,0,10.3,0,.7-.2,1.3-.3,2,0,.4-1.2,1.2-1.6,1.2-.4,0-1.6-.7-1.7-1.1-.1-.4-.3-.9-.3-1.3,0-3.2,0-6.4,0-9.6,0-.5,0-.9,0-1.4,0-2.7-.6-3.4-3.1-3.4-1.1,0-2.3,0-3.4,0-.5,0-.9,0-1.3-.2-.4-.2-.8-.5-1.1-.8-.2-.3.6-1.6,1-1.7.4-.1.9-.3,1.3-.3,3,0,6,0,9,0,0,0,0,0,0-.1Z"/>
  <path class="cls-19" d="M781,191.8s0,0,0,0,0,0,0,0h0Z"/>
  <path class="cls-19" d="M800.6,193.1c0-.7-.3-1.1-1-1.3-.6-.3-1.2-.3-1.8.1.2-.4.2-.8,0-1.3-.2-.3-.4-.4-.7-.2-4.5-.8-9.1-.8-13.7,0-.4-.1-.7,0-.9.3-.5.4-.9.9-1.5,1.1,0,0,0,0,0,0t0,0h0c-.3.6-.8,1-1.2,1.5-.3.2-.4.4-.2.7-.8,3.6-.8,7.3,0,10.9h0c-.2.4,0,.6.2.8.4.5.9.9,1.2,1.4h0,0q0,0,0,0c.5.3,1,.7,1.4,1.1l.5.3h.6c4.4.9,8.8.8,13.3,0,1.9,0,3.2-.9,3.8-2.7.9-4.3.9-8.7,0-13ZM796.2,206.3c-4.1.1-8.2.3-12.3-.2-.8-.9-1.3-1.9-1.3-3.1,0-2.3,0-4.6,0-6.9,0-1.2.5-2.2,1.3-3.1.7,0,1.4-.3,1.9-.9,2.8.4,5.7.4,8.6,0,.6.3,1.2.6,1.8.9.2,0,.3-.1.5-.2.2-.1.4-.3.6-.5,0,0,0,0,.1-.1-.2.2-.3.5-.5.7,0,.1-.1.2-.1.4.2.1.5.2.7.3,0,.4,0,.8.4,1.1-.2,3.2-.2,6.4,0,9.6-.6.6-1.1,1.2-1.7,1.8Z"/>
  <path class="cls-11" d="M576.4,189.9c.4,0,.9,0,1.3.1.8.4,1.6,1,2.3,1.6,1.9,1.6,3.6,3.6,5.7,4.9.5.3.8.3,1.3,0,2.1-1.5,3.8-3.4,5.7-5,.5-.5,1-.9,1.6-1.3.4-.2.8-.3,1.3-.4.5-.1.9,0,1.1.5.1.4.3.9,0,1.3-.3.6-.8,1.1-1.3,1.6-2,1.9-4,3.8-6,5.7-.7.7-1,1.5-1.1,2.4-.1,2.1-.2,4.1-.2,6.2,0,.8-.6,1.2-1.1,1.6-.6.5-2.1,0-2.3-.8-.1-.4-.3-.9-.3-1.3,0-1.6,0-3.2,0-4.8,0-2.1-.3-2.7-1.9-4.2-2.1-2.1-4.5-4-6.4-6.3-.2-.3-.1-.9,0-1.3,0-.2.3-.3.5-.5Z"/>
  <path class="cls-6" d="M951.3,199.8c0,2.5,0,5,0,7.5,0,.7-.5,1.2-1.1,1.6-.6.4-2.1,0-2.2-.8,0-.2-.2-.4-.2-.6,0-5.2,0-10.5,0-15.7,0-.2,0-.4.1-.7,0-.4,1.1-1.2,1.5-1.3.4,0,1.5.7,1.6,1.1,0,.4.3.9.3,1.3,0,2.5,0,5,0,7.5,0,0,0,0,0,0Z"/>
  <path class="cls-18" d="M800.6,206.1c0-4.3,0-8.7,0-13,.5.5.9,1,1,1.7.3,3.2.3,6.4,0,9.6,0,.7-.5,1.2-1,1.7Z"/>
  <path class="cls-18" d="M797,190.5c-4.6.3-9.1.3-13.7,0,.6-.4,1.1-.8,1.8-.8,3.4-.3,6.7-.3,10.1,0,.7,0,1.2.5,1.8.8Z"/>
  <path class="cls-18" d="M783.6,208.8c4.4-.2,8.8-.2,13.3,0-.6.3-1.2.7-1.9.8-3.2.3-6.4.3-9.5,0-.6,0-1.2-.5-1.9-.8Z"/>
  <path class="cls-18" d="M779.6,194.2c.2,3.6.3,7.3,0,10.9-.2-.4-.5-.8-.6-1.2-.4-2.9-.4-5.7,0-8.6,0-.4.4-.8.6-1.2Z"/>
  <path class="cls-18" d="M781,191.8c-.2.7-.6,1.3-1.3,1.6,0-.8.5-1.4,1.3-1.6Z"/>
  <path class="cls-18" d="M799.6,191.8c-.6,0-1.2.1-1.8.2h0c0-.5,0-.9,0-1.4.9,0,1.5.4,1.8,1.2Z"/>
  <path class="cls-18" d="M782.5,190.8c-.3.7-.8,1.1-1.6,1.2.2-.8.7-1.2,1.6-1.2Z"/>
  <path class="cls-18" d="M779.8,205.9c.7.3,1.1.8,1.3,1.5-.8-.2-1.2-.7-1.3-1.5Z"/>
  <path class="cls-18" d="M781,207.3c.7.1,1.2.5,1.5,1.1-.8,0-1.3-.4-1.5-1.1Z"/>
  <path class="cls-4" d="M785.9,192.2c-.5.5-1.2.8-1.9.9.6-.3,1.2-.8,1.9-.9Z"/>
  <path class="cls-4" d="M796.2,206.3s0,0,0,0c-4.1.3-8.2.6-12.3-.2,4.1.5,8.2.3,12.3.2Z"/>
  <path class="cls-4" d="M797.6,193.8c-.2-.1-.5-.2-.7-.3-.2-.1-.4-.2-.6-.3-.6-.3-1.2-.6-1.8-.9.7.4,1.6.3,2.3.7.1,0,.2.1.3.2.2.1.4.4.6.7Z"/>
  <path class="cls-4" d="M798,204.5c-.2-3.2-.2-6.4,0-9.6.7,3.2.7,6.4,0,9.6Z"/>
  <path class="cls-18" d="M796.2,206.3s0,0,0,0c-.6.3-1.2.9-1.8.9-2.9,0-5.9,0-8.8,0-.7,0-1.2-.5-1.7-1,4.1.5,8.2.3,12.3.2Z"/>
  <path class="cls-18" d="M799,196.6c0,2,0,4.1,0,6.2-.3.6-.7,1.1-1.1,1.7-.2-3.2-.2-6.4,0-9.6.4.6.7,1.2,1.1,1.7Z"/>
  <path class="cls-18" d="M797.8,192c0,.6,0,1.2-.1,1.7-.2-.1-.5-.2-.7-.3-.2-.1-.4-.2-.6-.3-.6-.3-1.2-.6-1.8-.9,1.1,0,2.2-.1,3.3-.2h0Z"/>
  <path class="cls-18" d="M785.9,192.2c-.5.5-1.2.8-1.9.9.5-.6,1.2-.9,1.9-.9Z"/>
</svg>